<mxfile host="app.diagrams.net" modified="2021-06-01T15:27:49.892Z" agent="5.0 (X11; Linux x86_64) AppleWebKit/537.36 (KHTML, like Gecko) Chrome/89.0.4389.90 Safari/537.36" etag="i36f6JFwRILtFA18TO6V" version="14.7.3" type="github">
  <diagram id="JMSu3cJSi2hTwxDdmqPx" name="Page-1">
    <mxGraphModel dx="4400" dy="2712" grid="1" gridSize="10" guides="1" tooltips="1" connect="1" arrows="1" fold="1" page="1" pageScale="1" pageWidth="850" pageHeight="1100" math="0" shadow="0">
      <root>
        <mxCell id="0" />
        <mxCell id="1" parent="0" />
        <mxCell id="OhTDjM6RpMIjNVaFcS4Z-455" value="" style="shape=ext;double=1;rounded=0;whiteSpace=wrap;html=1;" parent="1" vertex="1">
          <mxGeometry x="-1180" y="-1020" width="1620" height="920" as="geometry" />
        </mxCell>
        <mxCell id="86rAmTIcKEt4U7-xHO8E-9" style="edgeStyle=orthogonalEdgeStyle;rounded=0;orthogonalLoop=1;jettySize=auto;html=1;entryX=0;entryY=0.5;entryDx=0;entryDy=0;" parent="1" source="86rAmTIcKEt4U7-xHO8E-1" target="86rAmTIcKEt4U7-xHO8E-8" edge="1">
          <mxGeometry relative="1" as="geometry" />
        </mxCell>
        <mxCell id="86rAmTIcKEt4U7-xHO8E-17" style="edgeStyle=orthogonalEdgeStyle;rounded=0;orthogonalLoop=1;jettySize=auto;html=1;entryX=0;entryY=0.5;entryDx=0;entryDy=0;" parent="1" source="86rAmTIcKEt4U7-xHO8E-1" target="86rAmTIcKEt4U7-xHO8E-16" edge="1">
          <mxGeometry relative="1" as="geometry" />
        </mxCell>
        <mxCell id="86rAmTIcKEt4U7-xHO8E-31" style="edgeStyle=orthogonalEdgeStyle;rounded=0;orthogonalLoop=1;jettySize=auto;html=1;entryX=0;entryY=0.5;entryDx=0;entryDy=0;" parent="1" source="86rAmTIcKEt4U7-xHO8E-1" target="86rAmTIcKEt4U7-xHO8E-30" edge="1">
          <mxGeometry relative="1" as="geometry" />
        </mxCell>
        <mxCell id="86rAmTIcKEt4U7-xHO8E-33" style="edgeStyle=orthogonalEdgeStyle;rounded=0;orthogonalLoop=1;jettySize=auto;html=1;entryX=0;entryY=0.5;entryDx=0;entryDy=0;" parent="1" source="86rAmTIcKEt4U7-xHO8E-1" target="86rAmTIcKEt4U7-xHO8E-32" edge="1">
          <mxGeometry relative="1" as="geometry" />
        </mxCell>
        <mxCell id="86rAmTIcKEt4U7-xHO8E-53" style="edgeStyle=orthogonalEdgeStyle;rounded=0;orthogonalLoop=1;jettySize=auto;html=1;" parent="1" source="86rAmTIcKEt4U7-xHO8E-1" target="86rAmTIcKEt4U7-xHO8E-52" edge="1">
          <mxGeometry relative="1" as="geometry" />
        </mxCell>
        <mxCell id="86rAmTIcKEt4U7-xHO8E-63" style="edgeStyle=orthogonalEdgeStyle;rounded=0;orthogonalLoop=1;jettySize=auto;html=1;entryX=0.443;entryY=0.997;entryDx=0;entryDy=0;entryPerimeter=0;" parent="1" source="86rAmTIcKEt4U7-xHO8E-1" target="86rAmTIcKEt4U7-xHO8E-51" edge="1">
          <mxGeometry relative="1" as="geometry" />
        </mxCell>
        <mxCell id="OhTDjM6RpMIjNVaFcS4Z-150" style="edgeStyle=orthogonalEdgeStyle;rounded=0;orthogonalLoop=1;jettySize=auto;html=1;entryX=0.5;entryY=0;entryDx=0;entryDy=0;endArrow=none;endFill=0;strokeColor=#000000;" parent="1" source="86rAmTIcKEt4U7-xHO8E-1" target="OhTDjM6RpMIjNVaFcS4Z-149" edge="1">
          <mxGeometry relative="1" as="geometry" />
        </mxCell>
        <mxCell id="OhTDjM6RpMIjNVaFcS4Z-158" style="edgeStyle=orthogonalEdgeStyle;rounded=0;orthogonalLoop=1;jettySize=auto;html=1;endArrow=block;endFill=1;strokeColor=#000000;" parent="1" source="86rAmTIcKEt4U7-xHO8E-1" target="OhTDjM6RpMIjNVaFcS4Z-157" edge="1">
          <mxGeometry relative="1" as="geometry">
            <Array as="points">
              <mxPoint x="-490" y="510" />
              <mxPoint x="-490" y="50" />
            </Array>
          </mxGeometry>
        </mxCell>
        <mxCell id="86rAmTIcKEt4U7-xHO8E-1" value="&lt;meta charset=&quot;utf-8&quot;&gt;&lt;span style=&quot;color: rgb(0, 0, 0); font-family: helvetica; font-size: 12px; font-style: normal; font-weight: 400; letter-spacing: normal; text-align: center; text-indent: 0px; text-transform: none; word-spacing: 0px; background-color: rgb(248, 249, 250); display: inline; float: none;&quot;&gt;Logged in client&lt;/span&gt;" style="shape=umlActor;verticalLabelPosition=bottom;verticalAlign=top;html=1;outlineConnect=0;" parent="1" vertex="1">
          <mxGeometry x="-210" y="453.5" width="30" height="60" as="geometry" />
        </mxCell>
        <mxCell id="86rAmTIcKEt4U7-xHO8E-70" style="edgeStyle=orthogonalEdgeStyle;rounded=0;orthogonalLoop=1;jettySize=auto;html=1;entryX=0;entryY=0.5;entryDx=0;entryDy=0;endArrow=none;endFill=0;" parent="1" source="86rAmTIcKEt4U7-xHO8E-3" target="86rAmTIcKEt4U7-xHO8E-69" edge="1">
          <mxGeometry relative="1" as="geometry" />
        </mxCell>
        <mxCell id="OhTDjM6RpMIjNVaFcS4Z-159" style="edgeStyle=orthogonalEdgeStyle;rounded=0;orthogonalLoop=1;jettySize=auto;html=1;endArrow=block;endFill=1;strokeColor=#000000;" parent="1" source="86rAmTIcKEt4U7-xHO8E-3" target="OhTDjM6RpMIjNVaFcS4Z-157" edge="1">
          <mxGeometry relative="1" as="geometry">
            <Array as="points">
              <mxPoint x="-520" y="1000" />
              <mxPoint x="-520" y="40" />
            </Array>
          </mxGeometry>
        </mxCell>
        <mxCell id="86rAmTIcKEt4U7-xHO8E-3" value="Publisher" style="shape=umlActor;verticalLabelPosition=bottom;verticalAlign=top;html=1;outlineConnect=0;" parent="1" vertex="1">
          <mxGeometry x="-290" y="970" width="30" height="60" as="geometry" />
        </mxCell>
        <mxCell id="86rAmTIcKEt4U7-xHO8E-12" value="&amp;lt;&amp;lt;include&amp;gt;&amp;gt;" style="edgeStyle=orthogonalEdgeStyle;rounded=0;orthogonalLoop=1;jettySize=auto;html=1;dashed=1;" parent="1" source="86rAmTIcKEt4U7-xHO8E-8" target="86rAmTIcKEt4U7-xHO8E-10" edge="1">
          <mxGeometry relative="1" as="geometry" />
        </mxCell>
        <mxCell id="86rAmTIcKEt4U7-xHO8E-8" value="Upgrade Account" style="ellipse;whiteSpace=wrap;html=1;" parent="1" vertex="1">
          <mxGeometry x="10.000000000000114" y="263.5" width="120" height="80" as="geometry" />
        </mxCell>
        <mxCell id="86rAmTIcKEt4U7-xHO8E-10" value="Pay" style="ellipse;whiteSpace=wrap;html=1;" parent="1" vertex="1">
          <mxGeometry x="230.0000000000001" y="263.5" width="120" height="80" as="geometry" />
        </mxCell>
        <mxCell id="86rAmTIcKEt4U7-xHO8E-27" value="&amp;lt;&amp;lt;include&amp;gt;&amp;gt;" style="edgeStyle=orthogonalEdgeStyle;rounded=0;orthogonalLoop=1;jettySize=auto;html=1;dashed=1;" parent="1" source="86rAmTIcKEt4U7-xHO8E-16" target="86rAmTIcKEt4U7-xHO8E-25" edge="1">
          <mxGeometry relative="1" as="geometry" />
        </mxCell>
        <mxCell id="86rAmTIcKEt4U7-xHO8E-29" value="&amp;lt;&amp;lt;include&amp;gt;&amp;gt;" style="edgeStyle=orthogonalEdgeStyle;rounded=0;orthogonalLoop=1;jettySize=auto;html=1;entryX=0;entryY=0.5;entryDx=0;entryDy=0;dashed=1;" parent="1" source="86rAmTIcKEt4U7-xHO8E-16" target="86rAmTIcKEt4U7-xHO8E-28" edge="1">
          <mxGeometry relative="1" as="geometry" />
        </mxCell>
        <mxCell id="86rAmTIcKEt4U7-xHO8E-16" value="Manage PlayList" style="ellipse;whiteSpace=wrap;html=1;" parent="1" vertex="1">
          <mxGeometry x="50.000000000000114" y="413.5" width="120" height="80" as="geometry" />
        </mxCell>
        <mxCell id="86rAmTIcKEt4U7-xHO8E-25" value="Add music" style="ellipse;whiteSpace=wrap;html=1;" parent="1" vertex="1">
          <mxGeometry x="260.0000000000001" y="363.5" width="120" height="80" as="geometry" />
        </mxCell>
        <mxCell id="86rAmTIcKEt4U7-xHO8E-28" value="Remove music" style="ellipse;whiteSpace=wrap;html=1;" parent="1" vertex="1">
          <mxGeometry x="260.0000000000001" y="483.5" width="120" height="80" as="geometry" />
        </mxCell>
        <mxCell id="86rAmTIcKEt4U7-xHO8E-30" value="Add/Remove PlayList" style="ellipse;whiteSpace=wrap;html=1;" parent="1" vertex="1">
          <mxGeometry x="50.000000000000114" y="563.5" width="120" height="80" as="geometry" />
        </mxCell>
        <mxCell id="86rAmTIcKEt4U7-xHO8E-35" style="edgeStyle=orthogonalEdgeStyle;rounded=0;orthogonalLoop=1;jettySize=auto;html=1;entryX=0;entryY=0.5;entryDx=0;entryDy=0;dashed=1;" parent="1" source="86rAmTIcKEt4U7-xHO8E-32" target="86rAmTIcKEt4U7-xHO8E-34" edge="1">
          <mxGeometry relative="1" as="geometry" />
        </mxCell>
        <mxCell id="86rAmTIcKEt4U7-xHO8E-46" value="&amp;lt;&amp;lt;include&amp;gt;&amp;gt;" style="edgeLabel;html=1;align=center;verticalAlign=middle;resizable=0;points=[];" parent="86rAmTIcKEt4U7-xHO8E-35" vertex="1" connectable="0">
          <mxGeometry x="0.1621" y="2" relative="1" as="geometry">
            <mxPoint as="offset" />
          </mxGeometry>
        </mxCell>
        <mxCell id="86rAmTIcKEt4U7-xHO8E-68" value="&amp;lt;&amp;lt;include&amp;gt;&amp;gt;" style="edgeStyle=orthogonalEdgeStyle;rounded=0;orthogonalLoop=1;jettySize=auto;html=1;entryX=0;entryY=0.5;entryDx=0;entryDy=0;dashed=1;" parent="1" source="86rAmTIcKEt4U7-xHO8E-32" target="86rAmTIcKEt4U7-xHO8E-67" edge="1">
          <mxGeometry relative="1" as="geometry" />
        </mxCell>
        <mxCell id="86rAmTIcKEt4U7-xHO8E-80" value="&amp;lt;&amp;lt;include&amp;gt;&amp;gt;" style="edgeStyle=orthogonalEdgeStyle;rounded=0;orthogonalLoop=1;jettySize=auto;html=1;entryX=0;entryY=0.5;entryDx=0;entryDy=0;dashed=1;" parent="1" source="86rAmTIcKEt4U7-xHO8E-32" target="86rAmTIcKEt4U7-xHO8E-78" edge="1">
          <mxGeometry relative="1" as="geometry" />
        </mxCell>
        <mxCell id="86rAmTIcKEt4U7-xHO8E-82" value="&amp;lt;&amp;lt;include&amp;gt;&amp;gt;" style="edgeStyle=orthogonalEdgeStyle;rounded=0;orthogonalLoop=1;jettySize=auto;html=1;entryX=0;entryY=0.5;entryDx=0;entryDy=0;dashed=1;" parent="1" source="86rAmTIcKEt4U7-xHO8E-32" target="86rAmTIcKEt4U7-xHO8E-81" edge="1">
          <mxGeometry relative="1" as="geometry" />
        </mxCell>
        <mxCell id="86rAmTIcKEt4U7-xHO8E-32" value="Play Music" style="ellipse;whiteSpace=wrap;html=1;" parent="1" vertex="1">
          <mxGeometry x="50.000000000000114" y="693.5" width="120" height="80" as="geometry" />
        </mxCell>
        <mxCell id="86rAmTIcKEt4U7-xHO8E-34" value="Resume and Stop Music" style="ellipse;whiteSpace=wrap;html=1;" parent="1" vertex="1">
          <mxGeometry x="690.0000000000001" y="483.5" width="120" height="80" as="geometry" />
        </mxCell>
        <mxCell id="86rAmTIcKEt4U7-xHO8E-39" value="&amp;lt;&amp;lt;include&amp;gt;&amp;gt;" style="edgeStyle=orthogonalEdgeStyle;rounded=0;orthogonalLoop=1;jettySize=auto;html=1;entryX=0;entryY=0.5;entryDx=0;entryDy=0;dashed=1;" parent="1" source="86rAmTIcKEt4U7-xHO8E-36" target="86rAmTIcKEt4U7-xHO8E-38" edge="1">
          <mxGeometry relative="1" as="geometry" />
        </mxCell>
        <mxCell id="86rAmTIcKEt4U7-xHO8E-36" value="Skip Music" style="ellipse;whiteSpace=wrap;html=1;" parent="1" vertex="1">
          <mxGeometry x="560.0000000000001" y="893.5" width="120" height="80" as="geometry" />
        </mxCell>
        <mxCell id="86rAmTIcKEt4U7-xHO8E-38" value="Checks account type" style="ellipse;whiteSpace=wrap;html=1;" parent="1" vertex="1">
          <mxGeometry x="795.0000000000001" y="693.5" width="120" height="80" as="geometry" />
        </mxCell>
        <mxCell id="86rAmTIcKEt4U7-xHO8E-42" value="&amp;lt;&amp;lt;extends&amp;gt;&amp;gt;" style="edgeStyle=orthogonalEdgeStyle;rounded=0;orthogonalLoop=1;jettySize=auto;html=1;entryX=0.5;entryY=1;entryDx=0;entryDy=0;dashed=1;" parent="1" source="86rAmTIcKEt4U7-xHO8E-40" target="86rAmTIcKEt4U7-xHO8E-32" edge="1">
          <mxGeometry relative="1" as="geometry" />
        </mxCell>
        <mxCell id="86rAmTIcKEt4U7-xHO8E-40" value="Search Music And play it" style="ellipse;whiteSpace=wrap;html=1;" parent="1" vertex="1">
          <mxGeometry x="-10" y="833.5" width="120" height="80" as="geometry" />
        </mxCell>
        <mxCell id="86rAmTIcKEt4U7-xHO8E-43" value="&lt;meta charset=&quot;utf-8&quot;&gt;&lt;span style=&quot;color: rgb(0, 0, 0); font-family: helvetica; font-size: 11px; font-style: normal; font-weight: 400; letter-spacing: normal; text-align: center; text-indent: 0px; text-transform: none; word-spacing: 0px; background-color: rgb(255, 255, 255); display: inline; float: none;&quot;&gt;&amp;lt;&amp;lt;extends&amp;gt;&amp;gt;&lt;/span&gt;" style="edgeStyle=orthogonalEdgeStyle;rounded=0;orthogonalLoop=1;jettySize=auto;html=1;entryX=0.5;entryY=1;entryDx=0;entryDy=0;dashed=1;" parent="1" source="86rAmTIcKEt4U7-xHO8E-41" target="86rAmTIcKEt4U7-xHO8E-32" edge="1">
          <mxGeometry relative="1" as="geometry" />
        </mxCell>
        <mxCell id="86rAmTIcKEt4U7-xHO8E-84" value="&amp;lt;&amp;lt;include&amp;gt;&amp;gt;" style="edgeStyle=orthogonalEdgeStyle;rounded=0;orthogonalLoop=1;jettySize=auto;html=1;entryX=0;entryY=0.5;entryDx=0;entryDy=0;dashed=1;" parent="1" source="86rAmTIcKEt4U7-xHO8E-41" target="86rAmTIcKEt4U7-xHO8E-36" edge="1">
          <mxGeometry relative="1" as="geometry" />
        </mxCell>
        <mxCell id="86rAmTIcKEt4U7-xHO8E-85" value="&amp;lt;&amp;lt;include&amp;gt;&amp;gt;" style="edgeStyle=orthogonalEdgeStyle;rounded=0;orthogonalLoop=1;jettySize=auto;html=1;entryX=0;entryY=0.5;entryDx=0;entryDy=0;dashed=1;" parent="1" source="86rAmTIcKEt4U7-xHO8E-41" target="86rAmTIcKEt4U7-xHO8E-83" edge="1">
          <mxGeometry relative="1" as="geometry" />
        </mxCell>
        <mxCell id="86rAmTIcKEt4U7-xHO8E-41" value="Play Music from playlist" style="ellipse;whiteSpace=wrap;html=1;" parent="1" vertex="1">
          <mxGeometry x="130.0000000000001" y="833.5" width="120" height="80" as="geometry" />
        </mxCell>
        <mxCell id="86rAmTIcKEt4U7-xHO8E-65" style="edgeStyle=orthogonalEdgeStyle;rounded=0;orthogonalLoop=1;jettySize=auto;html=1;entryX=0.5;entryY=0;entryDx=0;entryDy=0;fillColor=#dae8fc;strokeColor=#6c8ebf;" parent="1" source="86rAmTIcKEt4U7-xHO8E-49" target="86rAmTIcKEt4U7-xHO8E-16" edge="1">
          <mxGeometry relative="1" as="geometry" />
        </mxCell>
        <mxCell id="86rAmTIcKEt4U7-xHO8E-66" style="edgeStyle=orthogonalEdgeStyle;rounded=0;orthogonalLoop=1;jettySize=auto;html=1;entryX=0.5;entryY=0;entryDx=0;entryDy=0;fillColor=#dae8fc;strokeColor=#6c8ebf;" parent="1" source="86rAmTIcKEt4U7-xHO8E-49" target="86rAmTIcKEt4U7-xHO8E-30" edge="1">
          <mxGeometry relative="1" as="geometry">
            <Array as="points">
              <mxPoint x="80.00000000000011" y="293.5" />
              <mxPoint x="80.00000000000011" y="563.5" />
            </Array>
          </mxGeometry>
        </mxCell>
        <mxCell id="86rAmTIcKEt4U7-xHO8E-49" value="Another Client (in App)" style="shape=umlActor;verticalLabelPosition=bottom;verticalAlign=top;html=1;outlineConnect=0;" parent="1" vertex="1">
          <mxGeometry x="-230" y="243.5" width="30" height="60" as="geometry" />
        </mxCell>
        <mxCell id="86rAmTIcKEt4U7-xHO8E-50" value="Another Person (out of App)" style="shape=umlActor;verticalLabelPosition=bottom;verticalAlign=top;html=1;outlineConnect=0;" parent="1" vertex="1">
          <mxGeometry x="-410" y="720" width="30" height="60" as="geometry" />
        </mxCell>
        <mxCell id="86rAmTIcKEt4U7-xHO8E-64" style="edgeStyle=orthogonalEdgeStyle;rounded=0;orthogonalLoop=1;jettySize=auto;html=1;" parent="1" source="86rAmTIcKEt4U7-xHO8E-51" target="86rAmTIcKEt4U7-xHO8E-49" edge="1">
          <mxGeometry relative="1" as="geometry" />
        </mxCell>
        <mxCell id="86rAmTIcKEt4U7-xHO8E-51" value="Share Play List (in app)" style="ellipse;whiteSpace=wrap;html=1;" parent="1" vertex="1">
          <mxGeometry x="-305" y="350" width="120" height="80" as="geometry" />
        </mxCell>
        <mxCell id="86rAmTIcKEt4U7-xHO8E-58" style="edgeStyle=orthogonalEdgeStyle;rounded=0;orthogonalLoop=1;jettySize=auto;html=1;entryX=1;entryY=0.3333333333333333;entryDx=0;entryDy=0;entryPerimeter=0;" parent="1" source="86rAmTIcKEt4U7-xHO8E-52" target="86rAmTIcKEt4U7-xHO8E-50" edge="1">
          <mxGeometry relative="1" as="geometry">
            <Array as="points">
              <mxPoint x="-170" y="733.5" />
            </Array>
          </mxGeometry>
        </mxCell>
        <mxCell id="86rAmTIcKEt4U7-xHO8E-52" value="Share Play List (out of app)" style="ellipse;whiteSpace=wrap;html=1;" parent="1" vertex="1">
          <mxGeometry x="-255" y="590" width="120" height="80" as="geometry" />
        </mxCell>
        <mxCell id="86rAmTIcKEt4U7-xHO8E-67" value="Select Quality&amp;nbsp;" style="ellipse;whiteSpace=wrap;html=1;" parent="1" vertex="1">
          <mxGeometry x="580.0000000000001" y="653.5" width="120" height="80" as="geometry" />
        </mxCell>
        <mxCell id="OhTDjM6RpMIjNVaFcS4Z-153" value="&amp;lt;&amp;lt;include&amp;gt;&amp;gt;" style="edgeStyle=orthogonalEdgeStyle;rounded=0;orthogonalLoop=1;jettySize=auto;html=1;entryX=0.433;entryY=1.013;entryDx=0;entryDy=0;entryPerimeter=0;endArrow=none;endFill=0;strokeColor=#000000;dashed=1;" parent="1" source="86rAmTIcKEt4U7-xHO8E-69" target="OhTDjM6RpMIjNVaFcS4Z-152" edge="1">
          <mxGeometry relative="1" as="geometry" />
        </mxCell>
        <mxCell id="86rAmTIcKEt4U7-xHO8E-69" value="Add song" style="ellipse;whiteSpace=wrap;html=1;" parent="1" vertex="1">
          <mxGeometry x="-120" y="960" width="120" height="80" as="geometry" />
        </mxCell>
        <mxCell id="86rAmTIcKEt4U7-xHO8E-79" value="&amp;lt;&amp;lt;include&amp;gt;&amp;gt;" style="edgeStyle=orthogonalEdgeStyle;rounded=0;orthogonalLoop=1;jettySize=auto;html=1;entryX=0.5;entryY=1;entryDx=0;entryDy=0;dashed=1;" parent="1" source="86rAmTIcKEt4U7-xHO8E-78" target="86rAmTIcKEt4U7-xHO8E-38" edge="1">
          <mxGeometry relative="1" as="geometry" />
        </mxCell>
        <mxCell id="86rAmTIcKEt4U7-xHO8E-78" value="Download" style="ellipse;whiteSpace=wrap;html=1;" parent="1" vertex="1">
          <mxGeometry x="450.0000000000001" y="733.5" width="120" height="80" as="geometry" />
        </mxCell>
        <mxCell id="86rAmTIcKEt4U7-xHO8E-81" value="FastForward/Rewind music" style="ellipse;whiteSpace=wrap;html=1;" parent="1" vertex="1">
          <mxGeometry x="610.0000000000001" y="563.5" width="120" height="80" as="geometry" />
        </mxCell>
        <mxCell id="86rAmTIcKEt4U7-xHO8E-86" value="&amp;lt;&amp;lt;include&amp;gt;&amp;gt;" style="edgeStyle=orthogonalEdgeStyle;rounded=0;orthogonalLoop=1;jettySize=auto;html=1;entryX=0;entryY=1;entryDx=0;entryDy=0;dashed=1;" parent="1" source="86rAmTIcKEt4U7-xHO8E-83" target="86rAmTIcKEt4U7-xHO8E-38" edge="1">
          <mxGeometry relative="1" as="geometry" />
        </mxCell>
        <mxCell id="86rAmTIcKEt4U7-xHO8E-83" value="Go to music" style="ellipse;whiteSpace=wrap;html=1;" parent="1" vertex="1">
          <mxGeometry x="510.0000000000001" y="983.5" width="120" height="80" as="geometry" />
        </mxCell>
        <mxCell id="OhTDjM6RpMIjNVaFcS4Z-1" value="LIST OF ACTORS" style="shape=table;html=1;whiteSpace=wrap;startSize=30;container=1;collapsible=0;childLayout=tableLayout;fontStyle=1;align=center;" parent="1" vertex="1">
          <mxGeometry x="1019.8600000000001" y="-960" width="270" height="644" as="geometry" />
        </mxCell>
        <mxCell id="OhTDjM6RpMIjNVaFcS4Z-2" value="" style="shape=partialRectangle;html=1;whiteSpace=wrap;collapsible=0;dropTarget=0;pointerEvents=0;fillColor=none;top=0;left=0;bottom=0;right=0;points=[[0,0.5],[1,0.5]];portConstraint=eastwest;" parent="OhTDjM6RpMIjNVaFcS4Z-1" vertex="1">
          <mxGeometry y="30" width="270" height="77" as="geometry" />
        </mxCell>
        <mxCell id="OhTDjM6RpMIjNVaFcS4Z-3" value="No" style="shape=partialRectangle;html=1;whiteSpace=wrap;connectable=0;fillColor=none;top=0;left=0;bottom=0;right=0;overflow=hidden;" parent="OhTDjM6RpMIjNVaFcS4Z-2" vertex="1">
          <mxGeometry width="30" height="77" as="geometry" />
        </mxCell>
        <mxCell id="OhTDjM6RpMIjNVaFcS4Z-4" value="Team" style="shape=partialRectangle;html=1;whiteSpace=wrap;connectable=0;fillColor=none;top=0;left=0;bottom=0;right=0;overflow=hidden;" parent="OhTDjM6RpMIjNVaFcS4Z-2" vertex="1">
          <mxGeometry x="30" width="120" height="77" as="geometry" />
        </mxCell>
        <mxCell id="OhTDjM6RpMIjNVaFcS4Z-5" value="Description" style="shape=partialRectangle;html=1;whiteSpace=wrap;connectable=0;fillColor=none;top=0;left=0;bottom=0;right=0;overflow=hidden;" parent="OhTDjM6RpMIjNVaFcS4Z-2" vertex="1">
          <mxGeometry x="150" width="120" height="77" as="geometry" />
        </mxCell>
        <mxCell id="OhTDjM6RpMIjNVaFcS4Z-10" value="" style="shape=partialRectangle;html=1;whiteSpace=wrap;collapsible=0;dropTarget=0;pointerEvents=0;fillColor=none;top=0;left=0;bottom=0;right=0;points=[[0,0.5],[1,0.5]];portConstraint=eastwest;" parent="OhTDjM6RpMIjNVaFcS4Z-1" vertex="1">
          <mxGeometry y="107" width="270" height="76" as="geometry" />
        </mxCell>
        <mxCell id="OhTDjM6RpMIjNVaFcS4Z-11" value="1" style="shape=partialRectangle;html=1;whiteSpace=wrap;connectable=0;fillColor=none;top=0;left=0;bottom=0;right=0;overflow=hidden;" parent="OhTDjM6RpMIjNVaFcS4Z-10" vertex="1">
          <mxGeometry width="30" height="76" as="geometry" />
        </mxCell>
        <mxCell id="OhTDjM6RpMIjNVaFcS4Z-12" value="New client" style="shape=partialRectangle;html=1;whiteSpace=wrap;connectable=0;fillColor=none;top=0;left=0;bottom=0;right=0;overflow=hidden;" parent="OhTDjM6RpMIjNVaFcS4Z-10" vertex="1">
          <mxGeometry x="30" width="120" height="76" as="geometry" />
        </mxCell>
        <mxCell id="OhTDjM6RpMIjNVaFcS4Z-13" value="کلاینتی که ثبت نام نکرده است" style="shape=partialRectangle;html=1;whiteSpace=wrap;connectable=0;fillColor=none;top=0;left=0;bottom=0;right=0;overflow=hidden;" parent="OhTDjM6RpMIjNVaFcS4Z-10" vertex="1">
          <mxGeometry x="150" width="120" height="76" as="geometry" />
        </mxCell>
        <mxCell id="OhTDjM6RpMIjNVaFcS4Z-18" value="" style="shape=partialRectangle;html=1;whiteSpace=wrap;collapsible=0;dropTarget=0;pointerEvents=0;fillColor=none;top=0;left=0;bottom=0;right=0;points=[[0,0.5],[1,0.5]];portConstraint=eastwest;" parent="OhTDjM6RpMIjNVaFcS4Z-1" vertex="1">
          <mxGeometry y="183" width="270" height="76" as="geometry" />
        </mxCell>
        <mxCell id="OhTDjM6RpMIjNVaFcS4Z-19" value="2" style="shape=partialRectangle;html=1;whiteSpace=wrap;connectable=0;fillColor=none;top=0;left=0;bottom=0;right=0;overflow=hidden;" parent="OhTDjM6RpMIjNVaFcS4Z-18" vertex="1">
          <mxGeometry width="30" height="76" as="geometry" />
        </mxCell>
        <mxCell id="OhTDjM6RpMIjNVaFcS4Z-20" value="Registered client" style="shape=partialRectangle;html=1;whiteSpace=wrap;connectable=0;fillColor=none;top=0;left=0;bottom=0;right=0;overflow=hidden;" parent="OhTDjM6RpMIjNVaFcS4Z-18" vertex="1">
          <mxGeometry x="30" width="120" height="76" as="geometry" />
        </mxCell>
        <mxCell id="OhTDjM6RpMIjNVaFcS4Z-21" value="کلاینتی که در سامانه ثبت نام کرده است" style="shape=partialRectangle;html=1;whiteSpace=wrap;connectable=0;fillColor=none;top=0;left=0;bottom=0;right=0;overflow=hidden;" parent="OhTDjM6RpMIjNVaFcS4Z-18" vertex="1">
          <mxGeometry x="150" width="120" height="76" as="geometry" />
        </mxCell>
        <mxCell id="OhTDjM6RpMIjNVaFcS4Z-6" value="" style="shape=partialRectangle;html=1;whiteSpace=wrap;collapsible=0;dropTarget=0;pointerEvents=0;fillColor=none;top=0;left=0;bottom=0;right=0;points=[[0,0.5],[1,0.5]];portConstraint=eastwest;" parent="OhTDjM6RpMIjNVaFcS4Z-1" vertex="1">
          <mxGeometry y="259" width="270" height="77" as="geometry" />
        </mxCell>
        <mxCell id="OhTDjM6RpMIjNVaFcS4Z-7" value="3" style="shape=partialRectangle;html=1;whiteSpace=wrap;connectable=0;fillColor=none;top=0;left=0;bottom=0;right=0;overflow=hidden;" parent="OhTDjM6RpMIjNVaFcS4Z-6" vertex="1">
          <mxGeometry width="30" height="77" as="geometry" />
        </mxCell>
        <mxCell id="OhTDjM6RpMIjNVaFcS4Z-8" value="Logged in client" style="shape=partialRectangle;html=1;whiteSpace=wrap;connectable=0;fillColor=none;top=0;left=0;bottom=0;right=0;overflow=hidden;" parent="OhTDjM6RpMIjNVaFcS4Z-6" vertex="1">
          <mxGeometry x="30" width="120" height="77" as="geometry" />
        </mxCell>
        <mxCell id="OhTDjM6RpMIjNVaFcS4Z-9" value="کلاینتی که در سامانه&lt;br&gt;لاگین کرده است" style="shape=partialRectangle;html=1;whiteSpace=wrap;connectable=0;fillColor=none;top=0;left=0;bottom=0;right=0;overflow=hidden;" parent="OhTDjM6RpMIjNVaFcS4Z-6" vertex="1">
          <mxGeometry x="150" width="120" height="77" as="geometry" />
        </mxCell>
        <mxCell id="OhTDjM6RpMIjNVaFcS4Z-22" value="" style="shape=partialRectangle;html=1;whiteSpace=wrap;collapsible=0;dropTarget=0;pointerEvents=0;fillColor=none;top=0;left=0;bottom=0;right=0;points=[[0,0.5],[1,0.5]];portConstraint=eastwest;" parent="OhTDjM6RpMIjNVaFcS4Z-1" vertex="1">
          <mxGeometry y="336" width="270" height="77" as="geometry" />
        </mxCell>
        <mxCell id="OhTDjM6RpMIjNVaFcS4Z-23" value="4" style="shape=partialRectangle;html=1;whiteSpace=wrap;connectable=0;fillColor=none;top=0;left=0;bottom=0;right=0;overflow=hidden;" parent="OhTDjM6RpMIjNVaFcS4Z-22" vertex="1">
          <mxGeometry width="30" height="77" as="geometry" />
        </mxCell>
        <mxCell id="OhTDjM6RpMIjNVaFcS4Z-24" value="Publisher" style="shape=partialRectangle;html=1;whiteSpace=wrap;connectable=0;fillColor=none;top=0;left=0;bottom=0;right=0;overflow=hidden;" parent="OhTDjM6RpMIjNVaFcS4Z-22" vertex="1">
          <mxGeometry x="30" width="120" height="77" as="geometry" />
        </mxCell>
        <mxCell id="OhTDjM6RpMIjNVaFcS4Z-25" value="ناشر آهنگ" style="shape=partialRectangle;html=1;whiteSpace=wrap;connectable=0;fillColor=none;top=0;left=0;bottom=0;right=0;overflow=hidden;" parent="OhTDjM6RpMIjNVaFcS4Z-22" vertex="1">
          <mxGeometry x="150" width="120" height="77" as="geometry" />
        </mxCell>
        <mxCell id="OhTDjM6RpMIjNVaFcS4Z-26" value="" style="shape=partialRectangle;html=1;whiteSpace=wrap;collapsible=0;dropTarget=0;pointerEvents=0;fillColor=none;top=0;left=0;bottom=0;right=0;points=[[0,0.5],[1,0.5]];portConstraint=eastwest;" parent="OhTDjM6RpMIjNVaFcS4Z-1" vertex="1">
          <mxGeometry y="413" width="270" height="77" as="geometry" />
        </mxCell>
        <mxCell id="OhTDjM6RpMIjNVaFcS4Z-27" value="5" style="shape=partialRectangle;html=1;whiteSpace=wrap;connectable=0;fillColor=none;top=0;left=0;bottom=0;right=0;overflow=hidden;" parent="OhTDjM6RpMIjNVaFcS4Z-26" vertex="1">
          <mxGeometry width="30" height="77" as="geometry" />
        </mxCell>
        <mxCell id="OhTDjM6RpMIjNVaFcS4Z-28" value="Another client (in app)" style="shape=partialRectangle;html=1;whiteSpace=wrap;connectable=0;fillColor=none;top=0;left=0;bottom=0;right=0;overflow=hidden;" parent="OhTDjM6RpMIjNVaFcS4Z-26" vertex="1">
          <mxGeometry x="30" width="120" height="77" as="geometry" />
        </mxCell>
        <mxCell id="OhTDjM6RpMIjNVaFcS4Z-29" value="کلاینت دیگری که ثبت نام کرده است" style="shape=partialRectangle;html=1;whiteSpace=wrap;connectable=0;fillColor=none;top=0;left=0;bottom=0;right=0;overflow=hidden;" parent="OhTDjM6RpMIjNVaFcS4Z-26" vertex="1">
          <mxGeometry x="150" width="120" height="77" as="geometry" />
        </mxCell>
        <mxCell id="OhTDjM6RpMIjNVaFcS4Z-94" value="" style="shape=partialRectangle;html=1;whiteSpace=wrap;collapsible=0;dropTarget=0;pointerEvents=0;fillColor=none;top=0;left=0;bottom=0;right=0;points=[[0,0.5],[1,0.5]];portConstraint=eastwest;" parent="OhTDjM6RpMIjNVaFcS4Z-1" vertex="1">
          <mxGeometry y="490" width="270" height="77" as="geometry" />
        </mxCell>
        <mxCell id="OhTDjM6RpMIjNVaFcS4Z-95" value="6" style="shape=partialRectangle;html=1;whiteSpace=wrap;connectable=0;fillColor=none;top=0;left=0;bottom=0;right=0;overflow=hidden;" parent="OhTDjM6RpMIjNVaFcS4Z-94" vertex="1">
          <mxGeometry width="30" height="77" as="geometry" />
        </mxCell>
        <mxCell id="OhTDjM6RpMIjNVaFcS4Z-96" value="Another client (out of app)" style="shape=partialRectangle;html=1;whiteSpace=wrap;connectable=0;fillColor=none;top=0;left=0;bottom=0;right=0;overflow=hidden;" parent="OhTDjM6RpMIjNVaFcS4Z-94" vertex="1">
          <mxGeometry x="30" width="120" height="77" as="geometry" />
        </mxCell>
        <mxCell id="OhTDjM6RpMIjNVaFcS4Z-97" value="فردی که خارج از سامانه است (ممکن است ثبت نما کرده باشد و ممکن است نکرده باشد)" style="shape=partialRectangle;html=1;whiteSpace=wrap;connectable=0;fillColor=none;top=0;left=0;bottom=0;right=0;overflow=hidden;" parent="OhTDjM6RpMIjNVaFcS4Z-94" vertex="1">
          <mxGeometry x="150" width="120" height="77" as="geometry" />
        </mxCell>
        <mxCell id="OhTDjM6RpMIjNVaFcS4Z-30" value="" style="shape=partialRectangle;html=1;whiteSpace=wrap;collapsible=0;dropTarget=0;pointerEvents=0;fillColor=none;top=0;left=0;bottom=0;right=0;points=[[0,0.5],[1,0.5]];portConstraint=eastwest;" parent="OhTDjM6RpMIjNVaFcS4Z-1" vertex="1">
          <mxGeometry y="567" width="270" height="77" as="geometry" />
        </mxCell>
        <mxCell id="OhTDjM6RpMIjNVaFcS4Z-31" value="7" style="shape=partialRectangle;html=1;whiteSpace=wrap;connectable=0;fillColor=none;top=0;left=0;bottom=0;right=0;overflow=hidden;" parent="OhTDjM6RpMIjNVaFcS4Z-30" vertex="1">
          <mxGeometry width="30" height="77" as="geometry" />
        </mxCell>
        <mxCell id="OhTDjM6RpMIjNVaFcS4Z-32" value="Payment system" style="shape=partialRectangle;html=1;whiteSpace=wrap;connectable=0;fillColor=none;top=0;left=0;bottom=0;right=0;overflow=hidden;" parent="OhTDjM6RpMIjNVaFcS4Z-30" vertex="1">
          <mxGeometry x="30" width="120" height="77" as="geometry" />
        </mxCell>
        <mxCell id="OhTDjM6RpMIjNVaFcS4Z-33" value="سیستم پرداخت آنلاین" style="shape=partialRectangle;html=1;whiteSpace=wrap;connectable=0;fillColor=none;top=0;left=0;bottom=0;right=0;overflow=hidden;" parent="OhTDjM6RpMIjNVaFcS4Z-30" vertex="1">
          <mxGeometry x="150" width="120" height="77" as="geometry" />
        </mxCell>
        <mxCell id="OhTDjM6RpMIjNVaFcS4Z-80" style="edgeStyle=orthogonalEdgeStyle;rounded=0;orthogonalLoop=1;jettySize=auto;html=1;entryX=0;entryY=0.5;entryDx=0;entryDy=0;endArrow=none;endFill=0;strokeColor=#000000;" parent="1" source="OhTDjM6RpMIjNVaFcS4Z-76" target="OhTDjM6RpMIjNVaFcS4Z-78" edge="1">
          <mxGeometry relative="1" as="geometry" />
        </mxCell>
        <mxCell id="OhTDjM6RpMIjNVaFcS4Z-76" value="New Client" style="shape=umlActor;verticalLabelPosition=bottom;verticalAlign=top;html=1;outlineConnect=0;" parent="1" vertex="1">
          <mxGeometry x="-300" y="1110" width="30" height="60" as="geometry" />
        </mxCell>
        <mxCell id="OhTDjM6RpMIjNVaFcS4Z-78" value="Register&amp;nbsp;" style="ellipse;whiteSpace=wrap;html=1;" parent="1" vertex="1">
          <mxGeometry x="-90" y="1100" width="120" height="80" as="geometry" />
        </mxCell>
        <mxCell id="OhTDjM6RpMIjNVaFcS4Z-81" value="USE-CASE GLOSSARY" style="shape=table;html=1;whiteSpace=wrap;startSize=30;container=1;collapsible=0;childLayout=tableLayout;fontStyle=1;align=center;" parent="1" vertex="1">
          <mxGeometry x="540" y="-1020" width="470" height="1010" as="geometry" />
        </mxCell>
        <mxCell id="OhTDjM6RpMIjNVaFcS4Z-82" value="" style="shape=partialRectangle;html=1;whiteSpace=wrap;collapsible=0;dropTarget=0;pointerEvents=0;fillColor=none;top=0;left=0;bottom=0;right=0;points=[[0,0.5],[1,0.5]];portConstraint=eastwest;" parent="OhTDjM6RpMIjNVaFcS4Z-81" vertex="1">
          <mxGeometry y="30" width="470" height="75" as="geometry" />
        </mxCell>
        <mxCell id="OhTDjM6RpMIjNVaFcS4Z-83" value="Use-Case Name" style="shape=partialRectangle;html=1;whiteSpace=wrap;connectable=0;fillColor=none;top=0;left=0;bottom=0;right=0;overflow=hidden;" parent="OhTDjM6RpMIjNVaFcS4Z-82" vertex="1">
          <mxGeometry width="90" height="75" as="geometry" />
        </mxCell>
        <mxCell id="OhTDjM6RpMIjNVaFcS4Z-84" value="Use-Case Description" style="shape=partialRectangle;html=1;whiteSpace=wrap;connectable=0;fillColor=none;top=0;left=0;bottom=0;right=0;overflow=hidden;" parent="OhTDjM6RpMIjNVaFcS4Z-82" vertex="1">
          <mxGeometry x="90" width="224" height="75" as="geometry" />
        </mxCell>
        <mxCell id="OhTDjM6RpMIjNVaFcS4Z-85" value="Participating Actors and Roles" style="shape=partialRectangle;html=1;whiteSpace=wrap;connectable=0;fillColor=none;top=0;left=0;bottom=0;right=0;overflow=hidden;" parent="OhTDjM6RpMIjNVaFcS4Z-82" vertex="1">
          <mxGeometry x="314" width="156" height="75" as="geometry" />
        </mxCell>
        <mxCell id="OhTDjM6RpMIjNVaFcS4Z-86" value="" style="shape=partialRectangle;html=1;whiteSpace=wrap;collapsible=0;dropTarget=0;pointerEvents=0;fillColor=none;top=0;left=0;bottom=0;right=0;points=[[0,0.5],[1,0.5]];portConstraint=eastwest;" parent="OhTDjM6RpMIjNVaFcS4Z-81" vertex="1">
          <mxGeometry y="105" width="470" height="76" as="geometry" />
        </mxCell>
        <mxCell id="OhTDjM6RpMIjNVaFcS4Z-87" value="Register&amp;nbsp;" style="shape=partialRectangle;html=1;whiteSpace=wrap;connectable=0;fillColor=none;top=0;left=0;bottom=0;right=0;overflow=hidden;" parent="OhTDjM6RpMIjNVaFcS4Z-86" vertex="1">
          <mxGeometry width="90" height="76" as="geometry" />
        </mxCell>
        <mxCell id="OhTDjM6RpMIjNVaFcS4Z-88" value="Register into the Sharifmusic" style="shape=partialRectangle;html=1;whiteSpace=wrap;connectable=0;fillColor=none;top=0;left=0;bottom=0;right=0;overflow=hidden;" parent="OhTDjM6RpMIjNVaFcS4Z-86" vertex="1">
          <mxGeometry x="90" width="224" height="76" as="geometry" />
        </mxCell>
        <mxCell id="OhTDjM6RpMIjNVaFcS4Z-89" value="New client (Primary business)" style="shape=partialRectangle;html=1;whiteSpace=wrap;connectable=0;fillColor=none;top=0;left=0;bottom=0;right=0;overflow=hidden;" parent="OhTDjM6RpMIjNVaFcS4Z-86" vertex="1">
          <mxGeometry x="314" width="156" height="76" as="geometry" />
        </mxCell>
        <mxCell id="OhTDjM6RpMIjNVaFcS4Z-120" value="" style="shape=partialRectangle;html=1;whiteSpace=wrap;collapsible=0;dropTarget=0;pointerEvents=0;fillColor=none;top=0;left=0;bottom=0;right=0;points=[[0,0.5],[1,0.5]];portConstraint=eastwest;" parent="OhTDjM6RpMIjNVaFcS4Z-81" vertex="1">
          <mxGeometry y="181" width="470" height="75" as="geometry" />
        </mxCell>
        <mxCell id="OhTDjM6RpMIjNVaFcS4Z-121" value="&lt;span&gt;Login&lt;/span&gt;" style="shape=partialRectangle;html=1;whiteSpace=wrap;connectable=0;fillColor=none;top=0;left=0;bottom=0;right=0;overflow=hidden;" parent="OhTDjM6RpMIjNVaFcS4Z-120" vertex="1">
          <mxGeometry width="90" height="75" as="geometry" />
        </mxCell>
        <mxCell id="OhTDjM6RpMIjNVaFcS4Z-122" value="login into the Sharif music" style="shape=partialRectangle;html=1;whiteSpace=wrap;connectable=0;fillColor=none;top=0;left=0;bottom=0;right=0;overflow=hidden;" parent="OhTDjM6RpMIjNVaFcS4Z-120" vertex="1">
          <mxGeometry x="90" width="224" height="75" as="geometry" />
        </mxCell>
        <mxCell id="OhTDjM6RpMIjNVaFcS4Z-123" value="Registred client (Primary business)" style="shape=partialRectangle;html=1;whiteSpace=wrap;connectable=0;fillColor=none;top=0;left=0;bottom=0;right=0;overflow=hidden;" parent="OhTDjM6RpMIjNVaFcS4Z-120" vertex="1">
          <mxGeometry x="314" width="156" height="75" as="geometry" />
        </mxCell>
        <mxCell id="OhTDjM6RpMIjNVaFcS4Z-90" value="" style="shape=partialRectangle;html=1;whiteSpace=wrap;collapsible=0;dropTarget=0;pointerEvents=0;fillColor=none;top=0;left=0;bottom=0;right=0;points=[[0,0.5],[1,0.5]];portConstraint=eastwest;" parent="OhTDjM6RpMIjNVaFcS4Z-81" vertex="1">
          <mxGeometry y="256" width="470" height="76" as="geometry" />
        </mxCell>
        <mxCell id="OhTDjM6RpMIjNVaFcS4Z-91" value="Add song" style="shape=partialRectangle;html=1;whiteSpace=wrap;connectable=0;fillColor=none;top=0;left=0;bottom=0;right=0;overflow=hidden;" parent="OhTDjM6RpMIjNVaFcS4Z-90" vertex="1">
          <mxGeometry width="90" height="76" as="geometry" />
        </mxCell>
        <mxCell id="OhTDjM6RpMIjNVaFcS4Z-92" value="Add a new music&lt;br&gt;and notify followers that a new music has been publsihed" style="shape=partialRectangle;html=1;whiteSpace=wrap;connectable=0;fillColor=none;top=0;left=0;bottom=0;right=0;overflow=hidden;" parent="OhTDjM6RpMIjNVaFcS4Z-90" vertex="1">
          <mxGeometry x="90" width="224" height="76" as="geometry" />
        </mxCell>
        <mxCell id="OhTDjM6RpMIjNVaFcS4Z-93" value="Publisher(Primary business)&lt;br&gt;&lt;span&gt;Registered client(&lt;/span&gt;External receiver)" style="shape=partialRectangle;html=1;whiteSpace=wrap;connectable=0;fillColor=none;top=0;left=0;bottom=0;right=0;overflow=hidden;" parent="OhTDjM6RpMIjNVaFcS4Z-90" vertex="1">
          <mxGeometry x="314" width="156" height="76" as="geometry" />
        </mxCell>
        <mxCell id="OhTDjM6RpMIjNVaFcS4Z-98" value="" style="shape=partialRectangle;html=1;whiteSpace=wrap;collapsible=0;dropTarget=0;pointerEvents=0;fillColor=none;top=0;left=0;bottom=0;right=0;points=[[0,0.5],[1,0.5]];portConstraint=eastwest;" parent="OhTDjM6RpMIjNVaFcS4Z-81" vertex="1">
          <mxGeometry y="332" width="470" height="75" as="geometry" />
        </mxCell>
        <mxCell id="OhTDjM6RpMIjNVaFcS4Z-99" value="&lt;span&gt;Upgrade Account&lt;/span&gt;" style="shape=partialRectangle;html=1;whiteSpace=wrap;connectable=0;fillColor=none;top=0;left=0;bottom=0;right=0;overflow=hidden;" parent="OhTDjM6RpMIjNVaFcS4Z-98" vertex="1">
          <mxGeometry width="90" height="75" as="geometry" />
        </mxCell>
        <mxCell id="OhTDjM6RpMIjNVaFcS4Z-100" value="Upgrade account to the premium" style="shape=partialRectangle;html=1;whiteSpace=wrap;connectable=0;fillColor=none;top=0;left=0;bottom=0;right=0;overflow=hidden;" parent="OhTDjM6RpMIjNVaFcS4Z-98" vertex="1">
          <mxGeometry x="90" width="224" height="75" as="geometry" />
        </mxCell>
        <mxCell id="OhTDjM6RpMIjNVaFcS4Z-101" value="Logged-in client (Primary business)&lt;br&gt;Payment System&lt;br&gt;(External Receiver)" style="shape=partialRectangle;html=1;whiteSpace=wrap;connectable=0;fillColor=none;top=0;left=0;bottom=0;right=0;overflow=hidden;" parent="OhTDjM6RpMIjNVaFcS4Z-98" vertex="1">
          <mxGeometry x="314" width="156" height="75" as="geometry" />
        </mxCell>
        <mxCell id="OhTDjM6RpMIjNVaFcS4Z-106" value="" style="shape=partialRectangle;html=1;whiteSpace=wrap;collapsible=0;dropTarget=0;pointerEvents=0;fillColor=none;top=0;left=0;bottom=0;right=0;points=[[0,0.5],[1,0.5]];portConstraint=eastwest;" parent="OhTDjM6RpMIjNVaFcS4Z-81" vertex="1">
          <mxGeometry y="407" width="470" height="75" as="geometry" />
        </mxCell>
        <mxCell id="OhTDjM6RpMIjNVaFcS4Z-107" value="&lt;span&gt;Share Play List (in app)&lt;/span&gt;" style="shape=partialRectangle;html=1;whiteSpace=wrap;connectable=0;fillColor=none;top=0;left=0;bottom=0;right=0;overflow=hidden;" parent="OhTDjM6RpMIjNVaFcS4Z-106" vertex="1">
          <mxGeometry width="90" height="75" as="geometry" />
        </mxCell>
        <mxCell id="OhTDjM6RpMIjNVaFcS4Z-108" value="Share the play list inside the application" style="shape=partialRectangle;html=1;whiteSpace=wrap;connectable=0;fillColor=none;top=0;left=0;bottom=0;right=0;overflow=hidden;" parent="OhTDjM6RpMIjNVaFcS4Z-106" vertex="1">
          <mxGeometry x="90" width="224" height="75" as="geometry" />
        </mxCell>
        <mxCell id="OhTDjM6RpMIjNVaFcS4Z-109" value="&lt;span&gt;Logged-in client (Primary business)&lt;/span&gt;&lt;br&gt;&lt;span&gt;Another client (in App)&lt;/span&gt;&lt;br&gt;&lt;span&gt;(External Receiver)&lt;/span&gt;" style="shape=partialRectangle;html=1;whiteSpace=wrap;connectable=0;fillColor=none;top=0;left=0;bottom=0;right=0;overflow=hidden;" parent="OhTDjM6RpMIjNVaFcS4Z-106" vertex="1">
          <mxGeometry x="314" width="156" height="75" as="geometry" />
        </mxCell>
        <mxCell id="OhTDjM6RpMIjNVaFcS4Z-127" value="" style="shape=partialRectangle;html=1;whiteSpace=wrap;collapsible=0;dropTarget=0;pointerEvents=0;fillColor=none;top=0;left=0;bottom=0;right=0;points=[[0,0.5],[1,0.5]];portConstraint=eastwest;" parent="OhTDjM6RpMIjNVaFcS4Z-81" vertex="1">
          <mxGeometry y="482" width="470" height="76" as="geometry" />
        </mxCell>
        <mxCell id="OhTDjM6RpMIjNVaFcS4Z-128" value="&lt;span&gt;Share Play List (out of app)&lt;/span&gt;" style="shape=partialRectangle;html=1;whiteSpace=wrap;connectable=0;fillColor=none;top=0;left=0;bottom=0;right=0;overflow=hidden;" parent="OhTDjM6RpMIjNVaFcS4Z-127" vertex="1">
          <mxGeometry width="90" height="76" as="geometry" />
        </mxCell>
        <mxCell id="OhTDjM6RpMIjNVaFcS4Z-129" value="Share the play list outside of the application" style="shape=partialRectangle;html=1;whiteSpace=wrap;connectable=0;fillColor=none;top=0;left=0;bottom=0;right=0;overflow=hidden;" parent="OhTDjM6RpMIjNVaFcS4Z-127" vertex="1">
          <mxGeometry x="90" width="224" height="76" as="geometry" />
        </mxCell>
        <mxCell id="OhTDjM6RpMIjNVaFcS4Z-130" value="&lt;span&gt;Logged-in client (Primary business)&lt;/span&gt;&lt;br&gt;&lt;span&gt;Another client (out of App)&lt;/span&gt;&lt;br&gt;&lt;span&gt;(External Receiver)&lt;/span&gt;" style="shape=partialRectangle;html=1;whiteSpace=wrap;connectable=0;fillColor=none;top=0;left=0;bottom=0;right=0;overflow=hidden;" parent="OhTDjM6RpMIjNVaFcS4Z-127" vertex="1">
          <mxGeometry x="314" width="156" height="76" as="geometry" />
        </mxCell>
        <mxCell id="OhTDjM6RpMIjNVaFcS4Z-102" value="" style="shape=partialRectangle;html=1;whiteSpace=wrap;collapsible=0;dropTarget=0;pointerEvents=0;fillColor=none;top=0;left=0;bottom=0;right=0;points=[[0,0.5],[1,0.5]];portConstraint=eastwest;" parent="OhTDjM6RpMIjNVaFcS4Z-81" vertex="1">
          <mxGeometry y="558" width="470" height="75" as="geometry" />
        </mxCell>
        <mxCell id="OhTDjM6RpMIjNVaFcS4Z-103" value="Manage playlist" style="shape=partialRectangle;html=1;whiteSpace=wrap;connectable=0;fillColor=none;top=0;left=0;bottom=0;right=0;overflow=hidden;" parent="OhTDjM6RpMIjNVaFcS4Z-102" vertex="1">
          <mxGeometry width="90" height="75" as="geometry" />
        </mxCell>
        <mxCell id="OhTDjM6RpMIjNVaFcS4Z-104" value="Add or remove music from play list" style="shape=partialRectangle;html=1;whiteSpace=wrap;connectable=0;fillColor=none;top=0;left=0;bottom=0;right=0;overflow=hidden;" parent="OhTDjM6RpMIjNVaFcS4Z-102" vertex="1">
          <mxGeometry x="90" width="224" height="75" as="geometry" />
        </mxCell>
        <mxCell id="OhTDjM6RpMIjNVaFcS4Z-105" value="Logged-in client (Primary business)&lt;br&gt;" style="shape=partialRectangle;html=1;whiteSpace=wrap;connectable=0;fillColor=none;top=0;left=0;bottom=0;right=0;overflow=hidden;" parent="OhTDjM6RpMIjNVaFcS4Z-102" vertex="1">
          <mxGeometry x="314" width="156" height="75" as="geometry" />
        </mxCell>
        <mxCell id="OhTDjM6RpMIjNVaFcS4Z-110" value="" style="shape=partialRectangle;html=1;whiteSpace=wrap;collapsible=0;dropTarget=0;pointerEvents=0;fillColor=none;top=0;left=0;bottom=0;right=0;points=[[0,0.5],[1,0.5]];portConstraint=eastwest;" parent="OhTDjM6RpMIjNVaFcS4Z-81" vertex="1">
          <mxGeometry y="633" width="470" height="75" as="geometry" />
        </mxCell>
        <mxCell id="OhTDjM6RpMIjNVaFcS4Z-111" value="Add/Remove play list" style="shape=partialRectangle;html=1;whiteSpace=wrap;connectable=0;fillColor=none;top=0;left=0;bottom=0;right=0;overflow=hidden;" parent="OhTDjM6RpMIjNVaFcS4Z-110" vertex="1">
          <mxGeometry width="90" height="75" as="geometry" />
        </mxCell>
        <mxCell id="OhTDjM6RpMIjNVaFcS4Z-112" value="Create a new play list of remove an old one" style="shape=partialRectangle;html=1;whiteSpace=wrap;connectable=0;fillColor=none;top=0;left=0;bottom=0;right=0;overflow=hidden;" parent="OhTDjM6RpMIjNVaFcS4Z-110" vertex="1">
          <mxGeometry x="90" width="224" height="75" as="geometry" />
        </mxCell>
        <mxCell id="OhTDjM6RpMIjNVaFcS4Z-113" value="&lt;span&gt;Logged-in client (Primary business)&lt;/span&gt;" style="shape=partialRectangle;html=1;whiteSpace=wrap;connectable=0;fillColor=none;top=0;left=0;bottom=0;right=0;overflow=hidden;" parent="OhTDjM6RpMIjNVaFcS4Z-110" vertex="1">
          <mxGeometry x="314" width="156" height="75" as="geometry" />
        </mxCell>
        <mxCell id="OhTDjM6RpMIjNVaFcS4Z-114" value="" style="shape=partialRectangle;html=1;whiteSpace=wrap;collapsible=0;dropTarget=0;pointerEvents=0;fillColor=none;top=0;left=0;bottom=0;right=0;points=[[0,0.5],[1,0.5]];portConstraint=eastwest;" parent="OhTDjM6RpMIjNVaFcS4Z-81" vertex="1">
          <mxGeometry y="708" width="470" height="76" as="geometry" />
        </mxCell>
        <mxCell id="OhTDjM6RpMIjNVaFcS4Z-115" value="Search music and play it" style="shape=partialRectangle;html=1;whiteSpace=wrap;connectable=0;fillColor=none;top=0;left=0;bottom=0;right=0;overflow=hidden;" parent="OhTDjM6RpMIjNVaFcS4Z-114" vertex="1">
          <mxGeometry width="90" height="76" as="geometry" />
        </mxCell>
        <mxCell id="OhTDjM6RpMIjNVaFcS4Z-116" value="Search for the music in search bar and select the music then play it" style="shape=partialRectangle;html=1;whiteSpace=wrap;connectable=0;fillColor=none;top=0;left=0;bottom=0;right=0;overflow=hidden;" parent="OhTDjM6RpMIjNVaFcS4Z-114" vertex="1">
          <mxGeometry x="90" width="224" height="76" as="geometry" />
        </mxCell>
        <mxCell id="OhTDjM6RpMIjNVaFcS4Z-117" value="&lt;span&gt;Logged-in client (Primary business)&lt;/span&gt;" style="shape=partialRectangle;html=1;whiteSpace=wrap;connectable=0;fillColor=none;top=0;left=0;bottom=0;right=0;overflow=hidden;" parent="OhTDjM6RpMIjNVaFcS4Z-114" vertex="1">
          <mxGeometry x="314" width="156" height="76" as="geometry" />
        </mxCell>
        <mxCell id="OhTDjM6RpMIjNVaFcS4Z-143" value="" style="shape=partialRectangle;html=1;whiteSpace=wrap;collapsible=0;dropTarget=0;pointerEvents=0;fillColor=none;top=0;left=0;bottom=0;right=0;points=[[0,0.5],[1,0.5]];portConstraint=eastwest;" parent="OhTDjM6RpMIjNVaFcS4Z-81" vertex="1">
          <mxGeometry y="784" width="470" height="75" as="geometry" />
        </mxCell>
        <mxCell id="OhTDjM6RpMIjNVaFcS4Z-144" value="Play music from playlist" style="shape=partialRectangle;html=1;whiteSpace=wrap;connectable=0;fillColor=none;top=0;left=0;bottom=0;right=0;overflow=hidden;" parent="OhTDjM6RpMIjNVaFcS4Z-143" vertex="1">
          <mxGeometry width="90" height="75" as="geometry" />
        </mxCell>
        <mxCell id="OhTDjM6RpMIjNVaFcS4Z-145" value="Select a music from playlist to play&lt;br&gt;If the account iis primum the user can skip music or go a specifed music" style="shape=partialRectangle;html=1;whiteSpace=wrap;connectable=0;fillColor=none;top=0;left=0;bottom=0;right=0;overflow=hidden;" parent="OhTDjM6RpMIjNVaFcS4Z-143" vertex="1">
          <mxGeometry x="90" width="224" height="75" as="geometry" />
        </mxCell>
        <mxCell id="OhTDjM6RpMIjNVaFcS4Z-146" value="&lt;span&gt;Logged-in client (Primary business)&lt;/span&gt;" style="shape=partialRectangle;html=1;whiteSpace=wrap;connectable=0;fillColor=none;top=0;left=0;bottom=0;right=0;overflow=hidden;" parent="OhTDjM6RpMIjNVaFcS4Z-143" vertex="1">
          <mxGeometry x="314" width="156" height="75" as="geometry" />
        </mxCell>
        <mxCell id="OhTDjM6RpMIjNVaFcS4Z-139" value="" style="shape=partialRectangle;html=1;whiteSpace=wrap;collapsible=0;dropTarget=0;pointerEvents=0;fillColor=none;top=0;left=0;bottom=0;right=0;points=[[0,0.5],[1,0.5]];portConstraint=eastwest;" parent="OhTDjM6RpMIjNVaFcS4Z-81" vertex="1">
          <mxGeometry y="859" width="470" height="76" as="geometry" />
        </mxCell>
        <mxCell id="OhTDjM6RpMIjNVaFcS4Z-140" value="Play music" style="shape=partialRectangle;html=1;whiteSpace=wrap;connectable=0;fillColor=none;top=0;left=0;bottom=0;right=0;overflow=hidden;" parent="OhTDjM6RpMIjNVaFcS4Z-139" vertex="1">
          <mxGeometry width="90" height="76" as="geometry" />
        </mxCell>
        <mxCell id="OhTDjM6RpMIjNVaFcS4Z-141" value="If the user is preimum he/she can download the music. user can select quality of music and fast forward/rewind the music or stop and resumt it" style="shape=partialRectangle;html=1;whiteSpace=wrap;connectable=0;fillColor=none;top=0;left=0;bottom=0;right=0;overflow=hidden;" parent="OhTDjM6RpMIjNVaFcS4Z-139" vertex="1">
          <mxGeometry x="90" width="224" height="76" as="geometry" />
        </mxCell>
        <mxCell id="OhTDjM6RpMIjNVaFcS4Z-142" value="&lt;span&gt;Logged-in client (Primary business)&lt;/span&gt;" style="shape=partialRectangle;html=1;whiteSpace=wrap;connectable=0;fillColor=none;top=0;left=0;bottom=0;right=0;overflow=hidden;" parent="OhTDjM6RpMIjNVaFcS4Z-139" vertex="1">
          <mxGeometry x="314" width="156" height="76" as="geometry" />
        </mxCell>
        <mxCell id="OhTDjM6RpMIjNVaFcS4Z-131" value="" style="shape=partialRectangle;html=1;whiteSpace=wrap;collapsible=0;dropTarget=0;pointerEvents=0;fillColor=none;top=0;left=0;bottom=0;right=0;points=[[0,0.5],[1,0.5]];portConstraint=eastwest;" parent="OhTDjM6RpMIjNVaFcS4Z-81" vertex="1">
          <mxGeometry y="935" width="470" height="75" as="geometry" />
        </mxCell>
        <mxCell id="OhTDjM6RpMIjNVaFcS4Z-132" value="&lt;span&gt;Follow a publisher&lt;/span&gt;" style="shape=partialRectangle;html=1;whiteSpace=wrap;connectable=0;fillColor=none;top=0;left=0;bottom=0;right=0;overflow=hidden;" parent="OhTDjM6RpMIjNVaFcS4Z-131" vertex="1">
          <mxGeometry width="90" height="75" as="geometry" />
        </mxCell>
        <mxCell id="OhTDjM6RpMIjNVaFcS4Z-133" value="The user can follow publishers and when the publisher publish a new music. user will be notified" style="shape=partialRectangle;html=1;whiteSpace=wrap;connectable=0;fillColor=none;top=0;left=0;bottom=0;right=0;overflow=hidden;" parent="OhTDjM6RpMIjNVaFcS4Z-131" vertex="1">
          <mxGeometry x="90" width="224" height="75" as="geometry" />
        </mxCell>
        <mxCell id="OhTDjM6RpMIjNVaFcS4Z-134" value="&lt;span&gt;Logged-in client (Primary business)&lt;/span&gt;" style="shape=partialRectangle;html=1;whiteSpace=wrap;connectable=0;fillColor=none;top=0;left=0;bottom=0;right=0;overflow=hidden;" parent="OhTDjM6RpMIjNVaFcS4Z-131" vertex="1">
          <mxGeometry x="314" width="156" height="75" as="geometry" />
        </mxCell>
        <mxCell id="OhTDjM6RpMIjNVaFcS4Z-126" style="edgeStyle=orthogonalEdgeStyle;rounded=0;orthogonalLoop=1;jettySize=auto;html=1;entryX=1;entryY=0.5;entryDx=0;entryDy=0;endArrow=none;endFill=0;strokeColor=#000000;" parent="1" source="OhTDjM6RpMIjNVaFcS4Z-125" target="86rAmTIcKEt4U7-xHO8E-10" edge="1">
          <mxGeometry relative="1" as="geometry" />
        </mxCell>
        <mxCell id="OhTDjM6RpMIjNVaFcS4Z-125" value="Payment System" style="shape=umlActor;verticalLabelPosition=bottom;verticalAlign=top;html=1;outlineConnect=0;" parent="1" vertex="1">
          <mxGeometry x="470.0000000000001" y="273.5" width="30" height="60" as="geometry" />
        </mxCell>
        <mxCell id="OhTDjM6RpMIjNVaFcS4Z-149" value="Follow a publisher" style="ellipse;whiteSpace=wrap;html=1;" parent="1" vertex="1">
          <mxGeometry x="-410" y="563.5" width="120" height="80" as="geometry" />
        </mxCell>
        <mxCell id="OhTDjM6RpMIjNVaFcS4Z-154" style="edgeStyle=orthogonalEdgeStyle;rounded=0;orthogonalLoop=1;jettySize=auto;html=1;entryX=0.5;entryY=0.5;entryDx=0;entryDy=0;entryPerimeter=0;dashed=1;endArrow=none;endFill=0;strokeColor=#000000;" parent="1" source="OhTDjM6RpMIjNVaFcS4Z-152" target="86rAmTIcKEt4U7-xHO8E-1" edge="1">
          <mxGeometry relative="1" as="geometry">
            <Array as="points">
              <mxPoint x="-90" y="657" />
              <mxPoint x="-110" y="657" />
              <mxPoint x="-110" y="484" />
            </Array>
          </mxGeometry>
        </mxCell>
        <mxCell id="OhTDjM6RpMIjNVaFcS4Z-152" value="Notify&lt;br&gt;&amp;nbsp;followers" style="ellipse;whiteSpace=wrap;html=1;" parent="1" vertex="1">
          <mxGeometry x="-185" y="800" width="120" height="80" as="geometry" />
        </mxCell>
        <mxCell id="OhTDjM6RpMIjNVaFcS4Z-155" value="Login" style="ellipse;whiteSpace=wrap;html=1;" parent="1" vertex="1">
          <mxGeometry x="-110" y="10" width="120" height="80" as="geometry" />
        </mxCell>
        <mxCell id="OhTDjM6RpMIjNVaFcS4Z-156" style="edgeStyle=orthogonalEdgeStyle;rounded=0;orthogonalLoop=1;jettySize=auto;html=1;entryX=0;entryY=0.5;entryDx=0;entryDy=0;endArrow=none;endFill=0;strokeColor=#000000;" parent="1" source="OhTDjM6RpMIjNVaFcS4Z-157" target="OhTDjM6RpMIjNVaFcS4Z-155" edge="1">
          <mxGeometry relative="1" as="geometry" />
        </mxCell>
        <mxCell id="OhTDjM6RpMIjNVaFcS4Z-157" value="Registered client" style="shape=umlActor;verticalLabelPosition=bottom;verticalAlign=top;html=1;outlineConnect=0;" parent="1" vertex="1">
          <mxGeometry x="-350" y="20" width="30" height="60" as="geometry" />
        </mxCell>
        <mxCell id="OhTDjM6RpMIjNVaFcS4Z-225" value="" style="shape=table;html=1;whiteSpace=wrap;startSize=0;container=1;collapsible=0;childLayout=tableLayout;" parent="1" vertex="1">
          <mxGeometry x="-1140" y="-960" width="250" height="379" as="geometry" />
        </mxCell>
        <mxCell id="OhTDjM6RpMIjNVaFcS4Z-226" value="" style="shape=partialRectangle;html=1;whiteSpace=wrap;collapsible=0;dropTarget=0;pointerEvents=0;fillColor=none;top=0;left=0;bottom=0;right=0;points=[[0,0.5],[1,0.5]];portConstraint=eastwest;" parent="OhTDjM6RpMIjNVaFcS4Z-225" vertex="1">
          <mxGeometry width="250" height="63" as="geometry" />
        </mxCell>
        <mxCell id="OhTDjM6RpMIjNVaFcS4Z-227" value="Name" style="shape=partialRectangle;html=1;whiteSpace=wrap;connectable=0;fillColor=none;top=0;left=0;bottom=0;right=0;overflow=hidden;" parent="OhTDjM6RpMIjNVaFcS4Z-226" vertex="1">
          <mxGeometry width="125" height="63" as="geometry" />
        </mxCell>
        <mxCell id="OhTDjM6RpMIjNVaFcS4Z-228" value="&lt;span&gt;Register&amp;nbsp;&lt;/span&gt;" style="shape=partialRectangle;html=1;whiteSpace=wrap;connectable=0;fillColor=none;top=0;left=0;bottom=0;right=0;overflow=hidden;" parent="OhTDjM6RpMIjNVaFcS4Z-226" vertex="1">
          <mxGeometry x="125" width="125" height="63" as="geometry" />
        </mxCell>
        <mxCell id="OhTDjM6RpMIjNVaFcS4Z-229" value="" style="shape=partialRectangle;html=1;whiteSpace=wrap;collapsible=0;dropTarget=0;pointerEvents=0;fillColor=none;top=0;left=0;bottom=0;right=0;points=[[0,0.5],[1,0.5]];portConstraint=eastwest;" parent="OhTDjM6RpMIjNVaFcS4Z-225" vertex="1">
          <mxGeometry y="63" width="250" height="64" as="geometry" />
        </mxCell>
        <mxCell id="OhTDjM6RpMIjNVaFcS4Z-230" value="ID" style="shape=partialRectangle;html=1;whiteSpace=wrap;connectable=0;fillColor=none;top=0;left=0;bottom=0;right=0;overflow=hidden;" parent="OhTDjM6RpMIjNVaFcS4Z-229" vertex="1">
          <mxGeometry width="125" height="64" as="geometry" />
        </mxCell>
        <mxCell id="OhTDjM6RpMIjNVaFcS4Z-231" value="&lt;span&gt;Register&amp;nbsp;&lt;/span&gt;" style="shape=partialRectangle;html=1;whiteSpace=wrap;connectable=0;fillColor=none;top=0;left=0;bottom=0;right=0;overflow=hidden;" parent="OhTDjM6RpMIjNVaFcS4Z-229" vertex="1">
          <mxGeometry x="125" width="125" height="64" as="geometry" />
        </mxCell>
        <mxCell id="OhTDjM6RpMIjNVaFcS4Z-232" value="" style="shape=partialRectangle;html=1;whiteSpace=wrap;collapsible=0;dropTarget=0;pointerEvents=0;fillColor=none;top=0;left=0;bottom=0;right=0;points=[[0,0.5],[1,0.5]];portConstraint=eastwest;" parent="OhTDjM6RpMIjNVaFcS4Z-225" vertex="1">
          <mxGeometry y="127" width="250" height="63" as="geometry" />
        </mxCell>
        <mxCell id="OhTDjM6RpMIjNVaFcS4Z-233" value="Priority" style="shape=partialRectangle;html=1;whiteSpace=wrap;connectable=0;fillColor=none;top=0;left=0;bottom=0;right=0;overflow=hidden;" parent="OhTDjM6RpMIjNVaFcS4Z-232" vertex="1">
          <mxGeometry width="125" height="63" as="geometry" />
        </mxCell>
        <mxCell id="OhTDjM6RpMIjNVaFcS4Z-234" value="High" style="shape=partialRectangle;html=1;whiteSpace=wrap;connectable=0;fillColor=none;top=0;left=0;bottom=0;right=0;overflow=hidden;" parent="OhTDjM6RpMIjNVaFcS4Z-232" vertex="1">
          <mxGeometry x="125" width="125" height="63" as="geometry" />
        </mxCell>
        <mxCell id="OhTDjM6RpMIjNVaFcS4Z-235" value="" style="shape=partialRectangle;html=1;whiteSpace=wrap;collapsible=0;dropTarget=0;pointerEvents=0;fillColor=none;top=0;left=0;bottom=0;right=0;points=[[0,0.5],[1,0.5]];portConstraint=eastwest;" parent="OhTDjM6RpMIjNVaFcS4Z-225" vertex="1">
          <mxGeometry y="190" width="250" height="63" as="geometry" />
        </mxCell>
        <mxCell id="OhTDjM6RpMIjNVaFcS4Z-236" value="Primary Business Actor:" style="shape=partialRectangle;html=1;whiteSpace=wrap;connectable=0;fillColor=none;top=0;left=0;bottom=0;right=0;overflow=hidden;" parent="OhTDjM6RpMIjNVaFcS4Z-235" vertex="1">
          <mxGeometry width="125" height="63" as="geometry" />
        </mxCell>
        <mxCell id="OhTDjM6RpMIjNVaFcS4Z-237" value="&lt;span&gt;New client&amp;nbsp;&lt;/span&gt;" style="shape=partialRectangle;html=1;whiteSpace=wrap;connectable=0;fillColor=none;top=0;left=0;bottom=0;right=0;overflow=hidden;" parent="OhTDjM6RpMIjNVaFcS4Z-235" vertex="1">
          <mxGeometry x="125" width="125" height="63" as="geometry" />
        </mxCell>
        <mxCell id="OhTDjM6RpMIjNVaFcS4Z-238" value="" style="shape=partialRectangle;html=1;whiteSpace=wrap;collapsible=0;dropTarget=0;pointerEvents=0;fillColor=none;top=0;left=0;bottom=0;right=0;points=[[0,0.5],[1,0.5]];portConstraint=eastwest;" parent="OhTDjM6RpMIjNVaFcS4Z-225" vertex="1">
          <mxGeometry y="253" width="250" height="63" as="geometry" />
        </mxCell>
        <mxCell id="OhTDjM6RpMIjNVaFcS4Z-239" value="Other Participating Actors:" style="shape=partialRectangle;html=1;whiteSpace=wrap;connectable=0;fillColor=none;top=0;left=0;bottom=0;right=0;overflow=hidden;" parent="OhTDjM6RpMIjNVaFcS4Z-238" vertex="1">
          <mxGeometry width="125" height="63" as="geometry" />
        </mxCell>
        <mxCell id="OhTDjM6RpMIjNVaFcS4Z-240" value="&lt;span&gt;New client (Primary business)&lt;/span&gt;" style="shape=partialRectangle;html=1;whiteSpace=wrap;connectable=0;fillColor=none;top=0;left=0;bottom=0;right=0;overflow=hidden;" parent="OhTDjM6RpMIjNVaFcS4Z-238" vertex="1">
          <mxGeometry x="125" width="125" height="63" as="geometry" />
        </mxCell>
        <mxCell id="OhTDjM6RpMIjNVaFcS4Z-241" value="" style="shape=partialRectangle;html=1;whiteSpace=wrap;collapsible=0;dropTarget=0;pointerEvents=0;fillColor=none;top=0;left=0;bottom=0;right=0;points=[[0,0.5],[1,0.5]];portConstraint=eastwest;" parent="OhTDjM6RpMIjNVaFcS4Z-225" vertex="1">
          <mxGeometry y="316" width="250" height="63" as="geometry" />
        </mxCell>
        <mxCell id="OhTDjM6RpMIjNVaFcS4Z-242" value="Description" style="shape=partialRectangle;html=1;whiteSpace=wrap;connectable=0;fillColor=none;top=0;left=0;bottom=0;right=0;overflow=hidden;" parent="OhTDjM6RpMIjNVaFcS4Z-241" vertex="1">
          <mxGeometry width="125" height="63" as="geometry" />
        </mxCell>
        <mxCell id="OhTDjM6RpMIjNVaFcS4Z-243" value="&lt;span&gt;Register into the Sharifmusic&lt;/span&gt;" style="shape=partialRectangle;html=1;whiteSpace=wrap;connectable=0;fillColor=none;top=0;left=0;bottom=0;right=0;overflow=hidden;" parent="OhTDjM6RpMIjNVaFcS4Z-241" vertex="1">
          <mxGeometry x="125" width="125" height="63" as="geometry" />
        </mxCell>
        <mxCell id="OhTDjM6RpMIjNVaFcS4Z-244" value="" style="shape=table;html=1;whiteSpace=wrap;startSize=0;container=1;collapsible=0;childLayout=tableLayout;" parent="1" vertex="1">
          <mxGeometry x="-880" y="-960" width="250" height="379" as="geometry" />
        </mxCell>
        <mxCell id="OhTDjM6RpMIjNVaFcS4Z-245" value="" style="shape=partialRectangle;html=1;whiteSpace=wrap;collapsible=0;dropTarget=0;pointerEvents=0;fillColor=none;top=0;left=0;bottom=0;right=0;points=[[0,0.5],[1,0.5]];portConstraint=eastwest;" parent="OhTDjM6RpMIjNVaFcS4Z-244" vertex="1">
          <mxGeometry width="250" height="63" as="geometry" />
        </mxCell>
        <mxCell id="OhTDjM6RpMIjNVaFcS4Z-246" value="Name" style="shape=partialRectangle;html=1;whiteSpace=wrap;connectable=0;fillColor=none;top=0;left=0;bottom=0;right=0;overflow=hidden;" parent="OhTDjM6RpMIjNVaFcS4Z-245" vertex="1">
          <mxGeometry width="125" height="63" as="geometry" />
        </mxCell>
        <mxCell id="OhTDjM6RpMIjNVaFcS4Z-247" value="&lt;span&gt;Login&lt;/span&gt;" style="shape=partialRectangle;html=1;whiteSpace=wrap;connectable=0;fillColor=none;top=0;left=0;bottom=0;right=0;overflow=hidden;" parent="OhTDjM6RpMIjNVaFcS4Z-245" vertex="1">
          <mxGeometry x="125" width="125" height="63" as="geometry" />
        </mxCell>
        <mxCell id="OhTDjM6RpMIjNVaFcS4Z-248" value="" style="shape=partialRectangle;html=1;whiteSpace=wrap;collapsible=0;dropTarget=0;pointerEvents=0;fillColor=none;top=0;left=0;bottom=0;right=0;points=[[0,0.5],[1,0.5]];portConstraint=eastwest;" parent="OhTDjM6RpMIjNVaFcS4Z-244" vertex="1">
          <mxGeometry y="63" width="250" height="64" as="geometry" />
        </mxCell>
        <mxCell id="OhTDjM6RpMIjNVaFcS4Z-249" value="ID" style="shape=partialRectangle;html=1;whiteSpace=wrap;connectable=0;fillColor=none;top=0;left=0;bottom=0;right=0;overflow=hidden;" parent="OhTDjM6RpMIjNVaFcS4Z-248" vertex="1">
          <mxGeometry width="125" height="64" as="geometry" />
        </mxCell>
        <mxCell id="OhTDjM6RpMIjNVaFcS4Z-250" value="&lt;span&gt;Login&lt;/span&gt;" style="shape=partialRectangle;html=1;whiteSpace=wrap;connectable=0;fillColor=none;top=0;left=0;bottom=0;right=0;overflow=hidden;" parent="OhTDjM6RpMIjNVaFcS4Z-248" vertex="1">
          <mxGeometry x="125" width="125" height="64" as="geometry" />
        </mxCell>
        <mxCell id="OhTDjM6RpMIjNVaFcS4Z-251" value="" style="shape=partialRectangle;html=1;whiteSpace=wrap;collapsible=0;dropTarget=0;pointerEvents=0;fillColor=none;top=0;left=0;bottom=0;right=0;points=[[0,0.5],[1,0.5]];portConstraint=eastwest;" parent="OhTDjM6RpMIjNVaFcS4Z-244" vertex="1">
          <mxGeometry y="127" width="250" height="63" as="geometry" />
        </mxCell>
        <mxCell id="OhTDjM6RpMIjNVaFcS4Z-252" value="Priority" style="shape=partialRectangle;html=1;whiteSpace=wrap;connectable=0;fillColor=none;top=0;left=0;bottom=0;right=0;overflow=hidden;" parent="OhTDjM6RpMIjNVaFcS4Z-251" vertex="1">
          <mxGeometry width="125" height="63" as="geometry" />
        </mxCell>
        <mxCell id="OhTDjM6RpMIjNVaFcS4Z-253" value="High" style="shape=partialRectangle;html=1;whiteSpace=wrap;connectable=0;fillColor=none;top=0;left=0;bottom=0;right=0;overflow=hidden;" parent="OhTDjM6RpMIjNVaFcS4Z-251" vertex="1">
          <mxGeometry x="125" width="125" height="63" as="geometry" />
        </mxCell>
        <mxCell id="OhTDjM6RpMIjNVaFcS4Z-254" value="" style="shape=partialRectangle;html=1;whiteSpace=wrap;collapsible=0;dropTarget=0;pointerEvents=0;fillColor=none;top=0;left=0;bottom=0;right=0;points=[[0,0.5],[1,0.5]];portConstraint=eastwest;" parent="OhTDjM6RpMIjNVaFcS4Z-244" vertex="1">
          <mxGeometry y="190" width="250" height="63" as="geometry" />
        </mxCell>
        <mxCell id="OhTDjM6RpMIjNVaFcS4Z-255" value="Primary Business Actor:" style="shape=partialRectangle;html=1;whiteSpace=wrap;connectable=0;fillColor=none;top=0;left=0;bottom=0;right=0;overflow=hidden;" parent="OhTDjM6RpMIjNVaFcS4Z-254" vertex="1">
          <mxGeometry width="125" height="63" as="geometry" />
        </mxCell>
        <mxCell id="OhTDjM6RpMIjNVaFcS4Z-256" value="&lt;span&gt;Registred client&lt;/span&gt;" style="shape=partialRectangle;html=1;whiteSpace=wrap;connectable=0;fillColor=none;top=0;left=0;bottom=0;right=0;overflow=hidden;" parent="OhTDjM6RpMIjNVaFcS4Z-254" vertex="1">
          <mxGeometry x="125" width="125" height="63" as="geometry" />
        </mxCell>
        <mxCell id="OhTDjM6RpMIjNVaFcS4Z-257" value="" style="shape=partialRectangle;html=1;whiteSpace=wrap;collapsible=0;dropTarget=0;pointerEvents=0;fillColor=none;top=0;left=0;bottom=0;right=0;points=[[0,0.5],[1,0.5]];portConstraint=eastwest;" parent="OhTDjM6RpMIjNVaFcS4Z-244" vertex="1">
          <mxGeometry y="253" width="250" height="63" as="geometry" />
        </mxCell>
        <mxCell id="OhTDjM6RpMIjNVaFcS4Z-258" value="Other Participating Actors:" style="shape=partialRectangle;html=1;whiteSpace=wrap;connectable=0;fillColor=none;top=0;left=0;bottom=0;right=0;overflow=hidden;" parent="OhTDjM6RpMIjNVaFcS4Z-257" vertex="1">
          <mxGeometry width="125" height="63" as="geometry" />
        </mxCell>
        <mxCell id="OhTDjM6RpMIjNVaFcS4Z-259" value="&lt;span&gt;Registred client (Primary business)&lt;/span&gt;" style="shape=partialRectangle;html=1;whiteSpace=wrap;connectable=0;fillColor=none;top=0;left=0;bottom=0;right=0;overflow=hidden;" parent="OhTDjM6RpMIjNVaFcS4Z-257" vertex="1">
          <mxGeometry x="125" width="125" height="63" as="geometry" />
        </mxCell>
        <mxCell id="OhTDjM6RpMIjNVaFcS4Z-260" value="" style="shape=partialRectangle;html=1;whiteSpace=wrap;collapsible=0;dropTarget=0;pointerEvents=0;fillColor=none;top=0;left=0;bottom=0;right=0;points=[[0,0.5],[1,0.5]];portConstraint=eastwest;" parent="OhTDjM6RpMIjNVaFcS4Z-244" vertex="1">
          <mxGeometry y="316" width="250" height="63" as="geometry" />
        </mxCell>
        <mxCell id="OhTDjM6RpMIjNVaFcS4Z-261" value="Description" style="shape=partialRectangle;html=1;whiteSpace=wrap;connectable=0;fillColor=none;top=0;left=0;bottom=0;right=0;overflow=hidden;" parent="OhTDjM6RpMIjNVaFcS4Z-260" vertex="1">
          <mxGeometry width="125" height="63" as="geometry" />
        </mxCell>
        <mxCell id="OhTDjM6RpMIjNVaFcS4Z-262" value="&lt;span&gt;login into the Sharif music&lt;/span&gt;" style="shape=partialRectangle;html=1;whiteSpace=wrap;connectable=0;fillColor=none;top=0;left=0;bottom=0;right=0;overflow=hidden;" parent="OhTDjM6RpMIjNVaFcS4Z-260" vertex="1">
          <mxGeometry x="125" width="125" height="63" as="geometry" />
        </mxCell>
        <mxCell id="OhTDjM6RpMIjNVaFcS4Z-264" value="" style="shape=table;html=1;whiteSpace=wrap;startSize=0;container=1;collapsible=0;childLayout=tableLayout;" parent="1" vertex="1">
          <mxGeometry x="-620" y="-960" width="250" height="379" as="geometry" />
        </mxCell>
        <mxCell id="OhTDjM6RpMIjNVaFcS4Z-265" value="" style="shape=partialRectangle;html=1;whiteSpace=wrap;collapsible=0;dropTarget=0;pointerEvents=0;fillColor=none;top=0;left=0;bottom=0;right=0;points=[[0,0.5],[1,0.5]];portConstraint=eastwest;" parent="OhTDjM6RpMIjNVaFcS4Z-264" vertex="1">
          <mxGeometry width="250" height="63" as="geometry" />
        </mxCell>
        <mxCell id="OhTDjM6RpMIjNVaFcS4Z-266" value="Name" style="shape=partialRectangle;html=1;whiteSpace=wrap;connectable=0;fillColor=none;top=0;left=0;bottom=0;right=0;overflow=hidden;" parent="OhTDjM6RpMIjNVaFcS4Z-265" vertex="1">
          <mxGeometry width="125" height="63" as="geometry" />
        </mxCell>
        <mxCell id="OhTDjM6RpMIjNVaFcS4Z-267" value="&lt;span&gt;Add song&lt;/span&gt;" style="shape=partialRectangle;html=1;whiteSpace=wrap;connectable=0;fillColor=none;top=0;left=0;bottom=0;right=0;overflow=hidden;" parent="OhTDjM6RpMIjNVaFcS4Z-265" vertex="1">
          <mxGeometry x="125" width="125" height="63" as="geometry" />
        </mxCell>
        <mxCell id="OhTDjM6RpMIjNVaFcS4Z-268" value="" style="shape=partialRectangle;html=1;whiteSpace=wrap;collapsible=0;dropTarget=0;pointerEvents=0;fillColor=none;top=0;left=0;bottom=0;right=0;points=[[0,0.5],[1,0.5]];portConstraint=eastwest;" parent="OhTDjM6RpMIjNVaFcS4Z-264" vertex="1">
          <mxGeometry y="63" width="250" height="64" as="geometry" />
        </mxCell>
        <mxCell id="OhTDjM6RpMIjNVaFcS4Z-269" value="ID" style="shape=partialRectangle;html=1;whiteSpace=wrap;connectable=0;fillColor=none;top=0;left=0;bottom=0;right=0;overflow=hidden;" parent="OhTDjM6RpMIjNVaFcS4Z-268" vertex="1">
          <mxGeometry width="125" height="64" as="geometry" />
        </mxCell>
        <mxCell id="OhTDjM6RpMIjNVaFcS4Z-270" value="&lt;span&gt;Add song&lt;/span&gt;" style="shape=partialRectangle;html=1;whiteSpace=wrap;connectable=0;fillColor=none;top=0;left=0;bottom=0;right=0;overflow=hidden;" parent="OhTDjM6RpMIjNVaFcS4Z-268" vertex="1">
          <mxGeometry x="125" width="125" height="64" as="geometry" />
        </mxCell>
        <mxCell id="OhTDjM6RpMIjNVaFcS4Z-271" value="" style="shape=partialRectangle;html=1;whiteSpace=wrap;collapsible=0;dropTarget=0;pointerEvents=0;fillColor=none;top=0;left=0;bottom=0;right=0;points=[[0,0.5],[1,0.5]];portConstraint=eastwest;" parent="OhTDjM6RpMIjNVaFcS4Z-264" vertex="1">
          <mxGeometry y="127" width="250" height="63" as="geometry" />
        </mxCell>
        <mxCell id="OhTDjM6RpMIjNVaFcS4Z-272" value="Priority" style="shape=partialRectangle;html=1;whiteSpace=wrap;connectable=0;fillColor=none;top=0;left=0;bottom=0;right=0;overflow=hidden;" parent="OhTDjM6RpMIjNVaFcS4Z-271" vertex="1">
          <mxGeometry width="125" height="63" as="geometry" />
        </mxCell>
        <mxCell id="OhTDjM6RpMIjNVaFcS4Z-273" value="High" style="shape=partialRectangle;html=1;whiteSpace=wrap;connectable=0;fillColor=none;top=0;left=0;bottom=0;right=0;overflow=hidden;" parent="OhTDjM6RpMIjNVaFcS4Z-271" vertex="1">
          <mxGeometry x="125" width="125" height="63" as="geometry" />
        </mxCell>
        <mxCell id="OhTDjM6RpMIjNVaFcS4Z-274" value="" style="shape=partialRectangle;html=1;whiteSpace=wrap;collapsible=0;dropTarget=0;pointerEvents=0;fillColor=none;top=0;left=0;bottom=0;right=0;points=[[0,0.5],[1,0.5]];portConstraint=eastwest;" parent="OhTDjM6RpMIjNVaFcS4Z-264" vertex="1">
          <mxGeometry y="190" width="250" height="63" as="geometry" />
        </mxCell>
        <mxCell id="OhTDjM6RpMIjNVaFcS4Z-275" value="Primary Business Actor:" style="shape=partialRectangle;html=1;whiteSpace=wrap;connectable=0;fillColor=none;top=0;left=0;bottom=0;right=0;overflow=hidden;" parent="OhTDjM6RpMIjNVaFcS4Z-274" vertex="1">
          <mxGeometry width="125" height="63" as="geometry" />
        </mxCell>
        <mxCell id="OhTDjM6RpMIjNVaFcS4Z-276" value="&lt;span&gt;Publisher&lt;/span&gt;" style="shape=partialRectangle;html=1;whiteSpace=wrap;connectable=0;fillColor=none;top=0;left=0;bottom=0;right=0;overflow=hidden;" parent="OhTDjM6RpMIjNVaFcS4Z-274" vertex="1">
          <mxGeometry x="125" width="125" height="63" as="geometry" />
        </mxCell>
        <mxCell id="OhTDjM6RpMIjNVaFcS4Z-277" value="" style="shape=partialRectangle;html=1;whiteSpace=wrap;collapsible=0;dropTarget=0;pointerEvents=0;fillColor=none;top=0;left=0;bottom=0;right=0;points=[[0,0.5],[1,0.5]];portConstraint=eastwest;" parent="OhTDjM6RpMIjNVaFcS4Z-264" vertex="1">
          <mxGeometry y="253" width="250" height="63" as="geometry" />
        </mxCell>
        <mxCell id="OhTDjM6RpMIjNVaFcS4Z-278" value="Other Participating Actors:" style="shape=partialRectangle;html=1;whiteSpace=wrap;connectable=0;fillColor=none;top=0;left=0;bottom=0;right=0;overflow=hidden;" parent="OhTDjM6RpMIjNVaFcS4Z-277" vertex="1">
          <mxGeometry width="125" height="63" as="geometry" />
        </mxCell>
        <mxCell id="OhTDjM6RpMIjNVaFcS4Z-279" value="&lt;span&gt;Publisher(Primary business)&lt;/span&gt;&lt;br&gt;&lt;span&gt;Registered client(&lt;/span&gt;&lt;span&gt;External receiver)&lt;/span&gt;" style="shape=partialRectangle;html=1;whiteSpace=wrap;connectable=0;fillColor=none;top=0;left=0;bottom=0;right=0;overflow=hidden;" parent="OhTDjM6RpMIjNVaFcS4Z-277" vertex="1">
          <mxGeometry x="125" width="125" height="63" as="geometry" />
        </mxCell>
        <mxCell id="OhTDjM6RpMIjNVaFcS4Z-280" value="" style="shape=partialRectangle;html=1;whiteSpace=wrap;collapsible=0;dropTarget=0;pointerEvents=0;fillColor=none;top=0;left=0;bottom=0;right=0;points=[[0,0.5],[1,0.5]];portConstraint=eastwest;" parent="OhTDjM6RpMIjNVaFcS4Z-264" vertex="1">
          <mxGeometry y="316" width="250" height="63" as="geometry" />
        </mxCell>
        <mxCell id="OhTDjM6RpMIjNVaFcS4Z-281" value="Description" style="shape=partialRectangle;html=1;whiteSpace=wrap;connectable=0;fillColor=none;top=0;left=0;bottom=0;right=0;overflow=hidden;" parent="OhTDjM6RpMIjNVaFcS4Z-280" vertex="1">
          <mxGeometry width="125" height="63" as="geometry" />
        </mxCell>
        <mxCell id="OhTDjM6RpMIjNVaFcS4Z-282" value="&lt;span&gt;Add a new music&lt;/span&gt;&lt;br&gt;&lt;span&gt;and notify followers that a new music has been publsihed&lt;/span&gt;" style="shape=partialRectangle;html=1;whiteSpace=wrap;connectable=0;fillColor=none;top=0;left=0;bottom=0;right=0;overflow=hidden;" parent="OhTDjM6RpMIjNVaFcS4Z-280" vertex="1">
          <mxGeometry x="125" width="125" height="63" as="geometry" />
        </mxCell>
        <mxCell id="OhTDjM6RpMIjNVaFcS4Z-283" value="" style="shape=table;html=1;whiteSpace=wrap;startSize=0;container=1;collapsible=0;childLayout=tableLayout;" parent="1" vertex="1">
          <mxGeometry x="-360" y="-960" width="250" height="379" as="geometry" />
        </mxCell>
        <mxCell id="OhTDjM6RpMIjNVaFcS4Z-284" value="" style="shape=partialRectangle;html=1;whiteSpace=wrap;collapsible=0;dropTarget=0;pointerEvents=0;fillColor=none;top=0;left=0;bottom=0;right=0;points=[[0,0.5],[1,0.5]];portConstraint=eastwest;" parent="OhTDjM6RpMIjNVaFcS4Z-283" vertex="1">
          <mxGeometry width="250" height="63" as="geometry" />
        </mxCell>
        <mxCell id="OhTDjM6RpMIjNVaFcS4Z-285" value="Name" style="shape=partialRectangle;html=1;whiteSpace=wrap;connectable=0;fillColor=none;top=0;left=0;bottom=0;right=0;overflow=hidden;" parent="OhTDjM6RpMIjNVaFcS4Z-284" vertex="1">
          <mxGeometry width="125" height="63" as="geometry" />
        </mxCell>
        <mxCell id="OhTDjM6RpMIjNVaFcS4Z-286" value="&lt;span&gt;Upgrade Account&lt;/span&gt;" style="shape=partialRectangle;html=1;whiteSpace=wrap;connectable=0;fillColor=none;top=0;left=0;bottom=0;right=0;overflow=hidden;" parent="OhTDjM6RpMIjNVaFcS4Z-284" vertex="1">
          <mxGeometry x="125" width="125" height="63" as="geometry" />
        </mxCell>
        <mxCell id="OhTDjM6RpMIjNVaFcS4Z-287" value="" style="shape=partialRectangle;html=1;whiteSpace=wrap;collapsible=0;dropTarget=0;pointerEvents=0;fillColor=none;top=0;left=0;bottom=0;right=0;points=[[0,0.5],[1,0.5]];portConstraint=eastwest;" parent="OhTDjM6RpMIjNVaFcS4Z-283" vertex="1">
          <mxGeometry y="63" width="250" height="64" as="geometry" />
        </mxCell>
        <mxCell id="OhTDjM6RpMIjNVaFcS4Z-288" value="ID" style="shape=partialRectangle;html=1;whiteSpace=wrap;connectable=0;fillColor=none;top=0;left=0;bottom=0;right=0;overflow=hidden;" parent="OhTDjM6RpMIjNVaFcS4Z-287" vertex="1">
          <mxGeometry width="125" height="64" as="geometry" />
        </mxCell>
        <mxCell id="OhTDjM6RpMIjNVaFcS4Z-289" value="&lt;span&gt;Upgrade Account&lt;/span&gt;" style="shape=partialRectangle;html=1;whiteSpace=wrap;connectable=0;fillColor=none;top=0;left=0;bottom=0;right=0;overflow=hidden;" parent="OhTDjM6RpMIjNVaFcS4Z-287" vertex="1">
          <mxGeometry x="125" width="125" height="64" as="geometry" />
        </mxCell>
        <mxCell id="OhTDjM6RpMIjNVaFcS4Z-290" value="" style="shape=partialRectangle;html=1;whiteSpace=wrap;collapsible=0;dropTarget=0;pointerEvents=0;fillColor=none;top=0;left=0;bottom=0;right=0;points=[[0,0.5],[1,0.5]];portConstraint=eastwest;" parent="OhTDjM6RpMIjNVaFcS4Z-283" vertex="1">
          <mxGeometry y="127" width="250" height="63" as="geometry" />
        </mxCell>
        <mxCell id="OhTDjM6RpMIjNVaFcS4Z-291" value="Priority" style="shape=partialRectangle;html=1;whiteSpace=wrap;connectable=0;fillColor=none;top=0;left=0;bottom=0;right=0;overflow=hidden;" parent="OhTDjM6RpMIjNVaFcS4Z-290" vertex="1">
          <mxGeometry width="125" height="63" as="geometry" />
        </mxCell>
        <mxCell id="OhTDjM6RpMIjNVaFcS4Z-292" value="Low" style="shape=partialRectangle;html=1;whiteSpace=wrap;connectable=0;fillColor=none;top=0;left=0;bottom=0;right=0;overflow=hidden;" parent="OhTDjM6RpMIjNVaFcS4Z-290" vertex="1">
          <mxGeometry x="125" width="125" height="63" as="geometry" />
        </mxCell>
        <mxCell id="OhTDjM6RpMIjNVaFcS4Z-293" value="" style="shape=partialRectangle;html=1;whiteSpace=wrap;collapsible=0;dropTarget=0;pointerEvents=0;fillColor=none;top=0;left=0;bottom=0;right=0;points=[[0,0.5],[1,0.5]];portConstraint=eastwest;" parent="OhTDjM6RpMIjNVaFcS4Z-283" vertex="1">
          <mxGeometry y="190" width="250" height="63" as="geometry" />
        </mxCell>
        <mxCell id="OhTDjM6RpMIjNVaFcS4Z-294" value="Primary Business Actor:" style="shape=partialRectangle;html=1;whiteSpace=wrap;connectable=0;fillColor=none;top=0;left=0;bottom=0;right=0;overflow=hidden;" parent="OhTDjM6RpMIjNVaFcS4Z-293" vertex="1">
          <mxGeometry width="125" height="63" as="geometry" />
        </mxCell>
        <mxCell id="OhTDjM6RpMIjNVaFcS4Z-295" value="&lt;span&gt;Logged-in client&amp;nbsp;&lt;/span&gt;" style="shape=partialRectangle;html=1;whiteSpace=wrap;connectable=0;fillColor=none;top=0;left=0;bottom=0;right=0;overflow=hidden;" parent="OhTDjM6RpMIjNVaFcS4Z-293" vertex="1">
          <mxGeometry x="125" width="125" height="63" as="geometry" />
        </mxCell>
        <mxCell id="OhTDjM6RpMIjNVaFcS4Z-296" value="" style="shape=partialRectangle;html=1;whiteSpace=wrap;collapsible=0;dropTarget=0;pointerEvents=0;fillColor=none;top=0;left=0;bottom=0;right=0;points=[[0,0.5],[1,0.5]];portConstraint=eastwest;" parent="OhTDjM6RpMIjNVaFcS4Z-283" vertex="1">
          <mxGeometry y="253" width="250" height="63" as="geometry" />
        </mxCell>
        <mxCell id="OhTDjM6RpMIjNVaFcS4Z-297" value="Other Participating Actors:" style="shape=partialRectangle;html=1;whiteSpace=wrap;connectable=0;fillColor=none;top=0;left=0;bottom=0;right=0;overflow=hidden;" parent="OhTDjM6RpMIjNVaFcS4Z-296" vertex="1">
          <mxGeometry width="125" height="63" as="geometry" />
        </mxCell>
        <mxCell id="OhTDjM6RpMIjNVaFcS4Z-298" value="&lt;span&gt;Logged-in client (Primary business)&lt;/span&gt;&lt;br&gt;&lt;span&gt;Payment System&lt;/span&gt;&lt;br&gt;&lt;span&gt;(External Receiver)&lt;/span&gt;" style="shape=partialRectangle;html=1;whiteSpace=wrap;connectable=0;fillColor=none;top=0;left=0;bottom=0;right=0;overflow=hidden;" parent="OhTDjM6RpMIjNVaFcS4Z-296" vertex="1">
          <mxGeometry x="125" width="125" height="63" as="geometry" />
        </mxCell>
        <mxCell id="OhTDjM6RpMIjNVaFcS4Z-299" value="" style="shape=partialRectangle;html=1;whiteSpace=wrap;collapsible=0;dropTarget=0;pointerEvents=0;fillColor=none;top=0;left=0;bottom=0;right=0;points=[[0,0.5],[1,0.5]];portConstraint=eastwest;" parent="OhTDjM6RpMIjNVaFcS4Z-283" vertex="1">
          <mxGeometry y="316" width="250" height="63" as="geometry" />
        </mxCell>
        <mxCell id="OhTDjM6RpMIjNVaFcS4Z-300" value="Description" style="shape=partialRectangle;html=1;whiteSpace=wrap;connectable=0;fillColor=none;top=0;left=0;bottom=0;right=0;overflow=hidden;" parent="OhTDjM6RpMIjNVaFcS4Z-299" vertex="1">
          <mxGeometry width="125" height="63" as="geometry" />
        </mxCell>
        <mxCell id="OhTDjM6RpMIjNVaFcS4Z-301" value="&lt;span&gt;Upgrade account to the premium&lt;/span&gt;" style="shape=partialRectangle;html=1;whiteSpace=wrap;connectable=0;fillColor=none;top=0;left=0;bottom=0;right=0;overflow=hidden;" parent="OhTDjM6RpMIjNVaFcS4Z-299" vertex="1">
          <mxGeometry x="125" width="125" height="63" as="geometry" />
        </mxCell>
        <mxCell id="OhTDjM6RpMIjNVaFcS4Z-302" value="" style="shape=table;html=1;whiteSpace=wrap;startSize=0;container=1;collapsible=0;childLayout=tableLayout;" parent="1" vertex="1">
          <mxGeometry x="-100" y="-960" width="250" height="379" as="geometry" />
        </mxCell>
        <mxCell id="OhTDjM6RpMIjNVaFcS4Z-303" value="" style="shape=partialRectangle;html=1;whiteSpace=wrap;collapsible=0;dropTarget=0;pointerEvents=0;fillColor=none;top=0;left=0;bottom=0;right=0;points=[[0,0.5],[1,0.5]];portConstraint=eastwest;" parent="OhTDjM6RpMIjNVaFcS4Z-302" vertex="1">
          <mxGeometry width="250" height="63" as="geometry" />
        </mxCell>
        <mxCell id="OhTDjM6RpMIjNVaFcS4Z-304" value="Name" style="shape=partialRectangle;html=1;whiteSpace=wrap;connectable=0;fillColor=none;top=0;left=0;bottom=0;right=0;overflow=hidden;" parent="OhTDjM6RpMIjNVaFcS4Z-303" vertex="1">
          <mxGeometry width="125" height="63" as="geometry" />
        </mxCell>
        <mxCell id="OhTDjM6RpMIjNVaFcS4Z-305" value="&lt;span&gt;Share Play List (in app)&lt;/span&gt;" style="shape=partialRectangle;html=1;whiteSpace=wrap;connectable=0;fillColor=none;top=0;left=0;bottom=0;right=0;overflow=hidden;" parent="OhTDjM6RpMIjNVaFcS4Z-303" vertex="1">
          <mxGeometry x="125" width="125" height="63" as="geometry" />
        </mxCell>
        <mxCell id="OhTDjM6RpMIjNVaFcS4Z-306" value="" style="shape=partialRectangle;html=1;whiteSpace=wrap;collapsible=0;dropTarget=0;pointerEvents=0;fillColor=none;top=0;left=0;bottom=0;right=0;points=[[0,0.5],[1,0.5]];portConstraint=eastwest;" parent="OhTDjM6RpMIjNVaFcS4Z-302" vertex="1">
          <mxGeometry y="63" width="250" height="64" as="geometry" />
        </mxCell>
        <mxCell id="OhTDjM6RpMIjNVaFcS4Z-307" value="ID" style="shape=partialRectangle;html=1;whiteSpace=wrap;connectable=0;fillColor=none;top=0;left=0;bottom=0;right=0;overflow=hidden;" parent="OhTDjM6RpMIjNVaFcS4Z-306" vertex="1">
          <mxGeometry width="125" height="64" as="geometry" />
        </mxCell>
        <mxCell id="OhTDjM6RpMIjNVaFcS4Z-308" value="&lt;span&gt;Share Play List (in app)&lt;/span&gt;" style="shape=partialRectangle;html=1;whiteSpace=wrap;connectable=0;fillColor=none;top=0;left=0;bottom=0;right=0;overflow=hidden;" parent="OhTDjM6RpMIjNVaFcS4Z-306" vertex="1">
          <mxGeometry x="125" width="125" height="64" as="geometry" />
        </mxCell>
        <mxCell id="OhTDjM6RpMIjNVaFcS4Z-309" value="" style="shape=partialRectangle;html=1;whiteSpace=wrap;collapsible=0;dropTarget=0;pointerEvents=0;fillColor=none;top=0;left=0;bottom=0;right=0;points=[[0,0.5],[1,0.5]];portConstraint=eastwest;" parent="OhTDjM6RpMIjNVaFcS4Z-302" vertex="1">
          <mxGeometry y="127" width="250" height="63" as="geometry" />
        </mxCell>
        <mxCell id="OhTDjM6RpMIjNVaFcS4Z-310" value="Priority" style="shape=partialRectangle;html=1;whiteSpace=wrap;connectable=0;fillColor=none;top=0;left=0;bottom=0;right=0;overflow=hidden;" parent="OhTDjM6RpMIjNVaFcS4Z-309" vertex="1">
          <mxGeometry width="125" height="63" as="geometry" />
        </mxCell>
        <mxCell id="OhTDjM6RpMIjNVaFcS4Z-311" value="Medium" style="shape=partialRectangle;html=1;whiteSpace=wrap;connectable=0;fillColor=none;top=0;left=0;bottom=0;right=0;overflow=hidden;" parent="OhTDjM6RpMIjNVaFcS4Z-309" vertex="1">
          <mxGeometry x="125" width="125" height="63" as="geometry" />
        </mxCell>
        <mxCell id="OhTDjM6RpMIjNVaFcS4Z-312" value="" style="shape=partialRectangle;html=1;whiteSpace=wrap;collapsible=0;dropTarget=0;pointerEvents=0;fillColor=none;top=0;left=0;bottom=0;right=0;points=[[0,0.5],[1,0.5]];portConstraint=eastwest;" parent="OhTDjM6RpMIjNVaFcS4Z-302" vertex="1">
          <mxGeometry y="190" width="250" height="63" as="geometry" />
        </mxCell>
        <mxCell id="OhTDjM6RpMIjNVaFcS4Z-313" value="Primary Business Actor:" style="shape=partialRectangle;html=1;whiteSpace=wrap;connectable=0;fillColor=none;top=0;left=0;bottom=0;right=0;overflow=hidden;" parent="OhTDjM6RpMIjNVaFcS4Z-312" vertex="1">
          <mxGeometry width="125" height="63" as="geometry" />
        </mxCell>
        <mxCell id="OhTDjM6RpMIjNVaFcS4Z-314" value="&lt;span&gt;Logged-in client&amp;nbsp;&lt;/span&gt;" style="shape=partialRectangle;html=1;whiteSpace=wrap;connectable=0;fillColor=none;top=0;left=0;bottom=0;right=0;overflow=hidden;" parent="OhTDjM6RpMIjNVaFcS4Z-312" vertex="1">
          <mxGeometry x="125" width="125" height="63" as="geometry" />
        </mxCell>
        <mxCell id="OhTDjM6RpMIjNVaFcS4Z-315" value="" style="shape=partialRectangle;html=1;whiteSpace=wrap;collapsible=0;dropTarget=0;pointerEvents=0;fillColor=none;top=0;left=0;bottom=0;right=0;points=[[0,0.5],[1,0.5]];portConstraint=eastwest;" parent="OhTDjM6RpMIjNVaFcS4Z-302" vertex="1">
          <mxGeometry y="253" width="250" height="63" as="geometry" />
        </mxCell>
        <mxCell id="OhTDjM6RpMIjNVaFcS4Z-316" value="Other Participating Actors:" style="shape=partialRectangle;html=1;whiteSpace=wrap;connectable=0;fillColor=none;top=0;left=0;bottom=0;right=0;overflow=hidden;" parent="OhTDjM6RpMIjNVaFcS4Z-315" vertex="1">
          <mxGeometry width="125" height="63" as="geometry" />
        </mxCell>
        <mxCell id="OhTDjM6RpMIjNVaFcS4Z-317" value="Logged-in client (Primary business)&lt;br&gt;Another client (in App)&lt;br&gt;(External Receiver)&lt;span&gt;&lt;br&gt;&lt;/span&gt;" style="shape=partialRectangle;html=1;whiteSpace=wrap;connectable=0;fillColor=none;top=0;left=0;bottom=0;right=0;overflow=hidden;" parent="OhTDjM6RpMIjNVaFcS4Z-315" vertex="1">
          <mxGeometry x="125" width="125" height="63" as="geometry" />
        </mxCell>
        <mxCell id="OhTDjM6RpMIjNVaFcS4Z-318" value="" style="shape=partialRectangle;html=1;whiteSpace=wrap;collapsible=0;dropTarget=0;pointerEvents=0;fillColor=none;top=0;left=0;bottom=0;right=0;points=[[0,0.5],[1,0.5]];portConstraint=eastwest;" parent="OhTDjM6RpMIjNVaFcS4Z-302" vertex="1">
          <mxGeometry y="316" width="250" height="63" as="geometry" />
        </mxCell>
        <mxCell id="OhTDjM6RpMIjNVaFcS4Z-319" value="Description" style="shape=partialRectangle;html=1;whiteSpace=wrap;connectable=0;fillColor=none;top=0;left=0;bottom=0;right=0;overflow=hidden;" parent="OhTDjM6RpMIjNVaFcS4Z-318" vertex="1">
          <mxGeometry width="125" height="63" as="geometry" />
        </mxCell>
        <mxCell id="OhTDjM6RpMIjNVaFcS4Z-320" value="&lt;span&gt;Share the play list inside the application&lt;/span&gt;" style="shape=partialRectangle;html=1;whiteSpace=wrap;connectable=0;fillColor=none;top=0;left=0;bottom=0;right=0;overflow=hidden;" parent="OhTDjM6RpMIjNVaFcS4Z-318" vertex="1">
          <mxGeometry x="125" width="125" height="63" as="geometry" />
        </mxCell>
        <mxCell id="OhTDjM6RpMIjNVaFcS4Z-321" value="" style="shape=table;html=1;whiteSpace=wrap;startSize=0;container=1;collapsible=0;childLayout=tableLayout;" parent="1" vertex="1">
          <mxGeometry x="160" y="-960" width="250" height="379" as="geometry" />
        </mxCell>
        <mxCell id="OhTDjM6RpMIjNVaFcS4Z-322" value="" style="shape=partialRectangle;html=1;whiteSpace=wrap;collapsible=0;dropTarget=0;pointerEvents=0;fillColor=none;top=0;left=0;bottom=0;right=0;points=[[0,0.5],[1,0.5]];portConstraint=eastwest;" parent="OhTDjM6RpMIjNVaFcS4Z-321" vertex="1">
          <mxGeometry width="250" height="63" as="geometry" />
        </mxCell>
        <mxCell id="OhTDjM6RpMIjNVaFcS4Z-323" value="Name" style="shape=partialRectangle;html=1;whiteSpace=wrap;connectable=0;fillColor=none;top=0;left=0;bottom=0;right=0;overflow=hidden;" parent="OhTDjM6RpMIjNVaFcS4Z-322" vertex="1">
          <mxGeometry width="125" height="63" as="geometry" />
        </mxCell>
        <mxCell id="OhTDjM6RpMIjNVaFcS4Z-324" value="&lt;span&gt;Share Play List (out of app)&lt;/span&gt;" style="shape=partialRectangle;html=1;whiteSpace=wrap;connectable=0;fillColor=none;top=0;left=0;bottom=0;right=0;overflow=hidden;" parent="OhTDjM6RpMIjNVaFcS4Z-322" vertex="1">
          <mxGeometry x="125" width="125" height="63" as="geometry" />
        </mxCell>
        <mxCell id="OhTDjM6RpMIjNVaFcS4Z-325" value="" style="shape=partialRectangle;html=1;whiteSpace=wrap;collapsible=0;dropTarget=0;pointerEvents=0;fillColor=none;top=0;left=0;bottom=0;right=0;points=[[0,0.5],[1,0.5]];portConstraint=eastwest;" parent="OhTDjM6RpMIjNVaFcS4Z-321" vertex="1">
          <mxGeometry y="63" width="250" height="64" as="geometry" />
        </mxCell>
        <mxCell id="OhTDjM6RpMIjNVaFcS4Z-326" value="ID" style="shape=partialRectangle;html=1;whiteSpace=wrap;connectable=0;fillColor=none;top=0;left=0;bottom=0;right=0;overflow=hidden;" parent="OhTDjM6RpMIjNVaFcS4Z-325" vertex="1">
          <mxGeometry width="125" height="64" as="geometry" />
        </mxCell>
        <mxCell id="OhTDjM6RpMIjNVaFcS4Z-327" value="&lt;span&gt;Share Play List (out of app)&lt;/span&gt;" style="shape=partialRectangle;html=1;whiteSpace=wrap;connectable=0;fillColor=none;top=0;left=0;bottom=0;right=0;overflow=hidden;" parent="OhTDjM6RpMIjNVaFcS4Z-325" vertex="1">
          <mxGeometry x="125" width="125" height="64" as="geometry" />
        </mxCell>
        <mxCell id="OhTDjM6RpMIjNVaFcS4Z-328" value="" style="shape=partialRectangle;html=1;whiteSpace=wrap;collapsible=0;dropTarget=0;pointerEvents=0;fillColor=none;top=0;left=0;bottom=0;right=0;points=[[0,0.5],[1,0.5]];portConstraint=eastwest;" parent="OhTDjM6RpMIjNVaFcS4Z-321" vertex="1">
          <mxGeometry y="127" width="250" height="63" as="geometry" />
        </mxCell>
        <mxCell id="OhTDjM6RpMIjNVaFcS4Z-329" value="Priority" style="shape=partialRectangle;html=1;whiteSpace=wrap;connectable=0;fillColor=none;top=0;left=0;bottom=0;right=0;overflow=hidden;" parent="OhTDjM6RpMIjNVaFcS4Z-328" vertex="1">
          <mxGeometry width="125" height="63" as="geometry" />
        </mxCell>
        <mxCell id="OhTDjM6RpMIjNVaFcS4Z-330" value="Medium" style="shape=partialRectangle;html=1;whiteSpace=wrap;connectable=0;fillColor=none;top=0;left=0;bottom=0;right=0;overflow=hidden;" parent="OhTDjM6RpMIjNVaFcS4Z-328" vertex="1">
          <mxGeometry x="125" width="125" height="63" as="geometry" />
        </mxCell>
        <mxCell id="OhTDjM6RpMIjNVaFcS4Z-331" value="" style="shape=partialRectangle;html=1;whiteSpace=wrap;collapsible=0;dropTarget=0;pointerEvents=0;fillColor=none;top=0;left=0;bottom=0;right=0;points=[[0,0.5],[1,0.5]];portConstraint=eastwest;" parent="OhTDjM6RpMIjNVaFcS4Z-321" vertex="1">
          <mxGeometry y="190" width="250" height="63" as="geometry" />
        </mxCell>
        <mxCell id="OhTDjM6RpMIjNVaFcS4Z-332" value="Primary Business Actor:" style="shape=partialRectangle;html=1;whiteSpace=wrap;connectable=0;fillColor=none;top=0;left=0;bottom=0;right=0;overflow=hidden;" parent="OhTDjM6RpMIjNVaFcS4Z-331" vertex="1">
          <mxGeometry width="125" height="63" as="geometry" />
        </mxCell>
        <mxCell id="OhTDjM6RpMIjNVaFcS4Z-333" value="&lt;span&gt;Logged-in client&amp;nbsp;&lt;/span&gt;" style="shape=partialRectangle;html=1;whiteSpace=wrap;connectable=0;fillColor=none;top=0;left=0;bottom=0;right=0;overflow=hidden;" parent="OhTDjM6RpMIjNVaFcS4Z-331" vertex="1">
          <mxGeometry x="125" width="125" height="63" as="geometry" />
        </mxCell>
        <mxCell id="OhTDjM6RpMIjNVaFcS4Z-334" value="" style="shape=partialRectangle;html=1;whiteSpace=wrap;collapsible=0;dropTarget=0;pointerEvents=0;fillColor=none;top=0;left=0;bottom=0;right=0;points=[[0,0.5],[1,0.5]];portConstraint=eastwest;" parent="OhTDjM6RpMIjNVaFcS4Z-321" vertex="1">
          <mxGeometry y="253" width="250" height="63" as="geometry" />
        </mxCell>
        <mxCell id="OhTDjM6RpMIjNVaFcS4Z-335" value="Other Participating Actors:" style="shape=partialRectangle;html=1;whiteSpace=wrap;connectable=0;fillColor=none;top=0;left=0;bottom=0;right=0;overflow=hidden;" parent="OhTDjM6RpMIjNVaFcS4Z-334" vertex="1">
          <mxGeometry width="125" height="63" as="geometry" />
        </mxCell>
        <mxCell id="OhTDjM6RpMIjNVaFcS4Z-336" value="Logged-in client (Primary business)&lt;br&gt;Another client (out of App)&lt;br&gt;(External Receiver)&lt;span&gt;&lt;br&gt;&lt;/span&gt;" style="shape=partialRectangle;html=1;whiteSpace=wrap;connectable=0;fillColor=none;top=0;left=0;bottom=0;right=0;overflow=hidden;" parent="OhTDjM6RpMIjNVaFcS4Z-334" vertex="1">
          <mxGeometry x="125" width="125" height="63" as="geometry" />
        </mxCell>
        <mxCell id="OhTDjM6RpMIjNVaFcS4Z-337" value="" style="shape=partialRectangle;html=1;whiteSpace=wrap;collapsible=0;dropTarget=0;pointerEvents=0;fillColor=none;top=0;left=0;bottom=0;right=0;points=[[0,0.5],[1,0.5]];portConstraint=eastwest;" parent="OhTDjM6RpMIjNVaFcS4Z-321" vertex="1">
          <mxGeometry y="316" width="250" height="63" as="geometry" />
        </mxCell>
        <mxCell id="OhTDjM6RpMIjNVaFcS4Z-338" value="Description" style="shape=partialRectangle;html=1;whiteSpace=wrap;connectable=0;fillColor=none;top=0;left=0;bottom=0;right=0;overflow=hidden;" parent="OhTDjM6RpMIjNVaFcS4Z-337" vertex="1">
          <mxGeometry width="125" height="63" as="geometry" />
        </mxCell>
        <mxCell id="OhTDjM6RpMIjNVaFcS4Z-339" value="&lt;meta charset=&quot;utf-8&quot;&gt;&lt;span style=&quot;color: rgb(0, 0, 0); font-family: helvetica; font-size: 12px; font-style: normal; font-weight: 400; letter-spacing: normal; text-align: center; text-indent: 0px; text-transform: none; word-spacing: 0px; background-color: rgb(248, 249, 250); display: inline; float: none;&quot;&gt;Share the play list outside of the application&lt;/span&gt;" style="shape=partialRectangle;html=1;whiteSpace=wrap;connectable=0;fillColor=none;top=0;left=0;bottom=0;right=0;overflow=hidden;" parent="OhTDjM6RpMIjNVaFcS4Z-337" vertex="1">
          <mxGeometry x="125" width="125" height="63" as="geometry" />
        </mxCell>
        <mxCell id="OhTDjM6RpMIjNVaFcS4Z-340" value="" style="shape=table;html=1;whiteSpace=wrap;startSize=0;container=1;collapsible=0;childLayout=tableLayout;" parent="1" vertex="1">
          <mxGeometry x="-1140" y="-560" width="250" height="379" as="geometry" />
        </mxCell>
        <mxCell id="OhTDjM6RpMIjNVaFcS4Z-341" value="" style="shape=partialRectangle;html=1;whiteSpace=wrap;collapsible=0;dropTarget=0;pointerEvents=0;fillColor=none;top=0;left=0;bottom=0;right=0;points=[[0,0.5],[1,0.5]];portConstraint=eastwest;" parent="OhTDjM6RpMIjNVaFcS4Z-340" vertex="1">
          <mxGeometry width="250" height="63" as="geometry" />
        </mxCell>
        <mxCell id="OhTDjM6RpMIjNVaFcS4Z-342" value="Name" style="shape=partialRectangle;html=1;whiteSpace=wrap;connectable=0;fillColor=none;top=0;left=0;bottom=0;right=0;overflow=hidden;" parent="OhTDjM6RpMIjNVaFcS4Z-341" vertex="1">
          <mxGeometry width="125" height="63" as="geometry" />
        </mxCell>
        <mxCell id="OhTDjM6RpMIjNVaFcS4Z-343" value="&lt;span&gt;Manage playlist&lt;/span&gt;" style="shape=partialRectangle;html=1;whiteSpace=wrap;connectable=0;fillColor=none;top=0;left=0;bottom=0;right=0;overflow=hidden;" parent="OhTDjM6RpMIjNVaFcS4Z-341" vertex="1">
          <mxGeometry x="125" width="125" height="63" as="geometry" />
        </mxCell>
        <mxCell id="OhTDjM6RpMIjNVaFcS4Z-344" value="" style="shape=partialRectangle;html=1;whiteSpace=wrap;collapsible=0;dropTarget=0;pointerEvents=0;fillColor=none;top=0;left=0;bottom=0;right=0;points=[[0,0.5],[1,0.5]];portConstraint=eastwest;" parent="OhTDjM6RpMIjNVaFcS4Z-340" vertex="1">
          <mxGeometry y="63" width="250" height="64" as="geometry" />
        </mxCell>
        <mxCell id="OhTDjM6RpMIjNVaFcS4Z-345" value="ID" style="shape=partialRectangle;html=1;whiteSpace=wrap;connectable=0;fillColor=none;top=0;left=0;bottom=0;right=0;overflow=hidden;" parent="OhTDjM6RpMIjNVaFcS4Z-344" vertex="1">
          <mxGeometry width="125" height="64" as="geometry" />
        </mxCell>
        <mxCell id="OhTDjM6RpMIjNVaFcS4Z-346" value="&lt;span&gt;Manage playlist&lt;/span&gt;" style="shape=partialRectangle;html=1;whiteSpace=wrap;connectable=0;fillColor=none;top=0;left=0;bottom=0;right=0;overflow=hidden;" parent="OhTDjM6RpMIjNVaFcS4Z-344" vertex="1">
          <mxGeometry x="125" width="125" height="64" as="geometry" />
        </mxCell>
        <mxCell id="OhTDjM6RpMIjNVaFcS4Z-347" value="" style="shape=partialRectangle;html=1;whiteSpace=wrap;collapsible=0;dropTarget=0;pointerEvents=0;fillColor=none;top=0;left=0;bottom=0;right=0;points=[[0,0.5],[1,0.5]];portConstraint=eastwest;" parent="OhTDjM6RpMIjNVaFcS4Z-340" vertex="1">
          <mxGeometry y="127" width="250" height="63" as="geometry" />
        </mxCell>
        <mxCell id="OhTDjM6RpMIjNVaFcS4Z-348" value="Priority" style="shape=partialRectangle;html=1;whiteSpace=wrap;connectable=0;fillColor=none;top=0;left=0;bottom=0;right=0;overflow=hidden;" parent="OhTDjM6RpMIjNVaFcS4Z-347" vertex="1">
          <mxGeometry width="125" height="63" as="geometry" />
        </mxCell>
        <mxCell id="OhTDjM6RpMIjNVaFcS4Z-349" value="Medium" style="shape=partialRectangle;html=1;whiteSpace=wrap;connectable=0;fillColor=none;top=0;left=0;bottom=0;right=0;overflow=hidden;" parent="OhTDjM6RpMIjNVaFcS4Z-347" vertex="1">
          <mxGeometry x="125" width="125" height="63" as="geometry" />
        </mxCell>
        <mxCell id="OhTDjM6RpMIjNVaFcS4Z-350" value="" style="shape=partialRectangle;html=1;whiteSpace=wrap;collapsible=0;dropTarget=0;pointerEvents=0;fillColor=none;top=0;left=0;bottom=0;right=0;points=[[0,0.5],[1,0.5]];portConstraint=eastwest;" parent="OhTDjM6RpMIjNVaFcS4Z-340" vertex="1">
          <mxGeometry y="190" width="250" height="63" as="geometry" />
        </mxCell>
        <mxCell id="OhTDjM6RpMIjNVaFcS4Z-351" value="Primary Business Actor:" style="shape=partialRectangle;html=1;whiteSpace=wrap;connectable=0;fillColor=none;top=0;left=0;bottom=0;right=0;overflow=hidden;" parent="OhTDjM6RpMIjNVaFcS4Z-350" vertex="1">
          <mxGeometry width="125" height="63" as="geometry" />
        </mxCell>
        <mxCell id="OhTDjM6RpMIjNVaFcS4Z-352" value="&lt;span&gt;Logged-in client&amp;nbsp;&lt;/span&gt;" style="shape=partialRectangle;html=1;whiteSpace=wrap;connectable=0;fillColor=none;top=0;left=0;bottom=0;right=0;overflow=hidden;" parent="OhTDjM6RpMIjNVaFcS4Z-350" vertex="1">
          <mxGeometry x="125" width="125" height="63" as="geometry" />
        </mxCell>
        <mxCell id="OhTDjM6RpMIjNVaFcS4Z-353" value="" style="shape=partialRectangle;html=1;whiteSpace=wrap;collapsible=0;dropTarget=0;pointerEvents=0;fillColor=none;top=0;left=0;bottom=0;right=0;points=[[0,0.5],[1,0.5]];portConstraint=eastwest;" parent="OhTDjM6RpMIjNVaFcS4Z-340" vertex="1">
          <mxGeometry y="253" width="250" height="63" as="geometry" />
        </mxCell>
        <mxCell id="OhTDjM6RpMIjNVaFcS4Z-354" value="Other Participating Actors:" style="shape=partialRectangle;html=1;whiteSpace=wrap;connectable=0;fillColor=none;top=0;left=0;bottom=0;right=0;overflow=hidden;" parent="OhTDjM6RpMIjNVaFcS4Z-353" vertex="1">
          <mxGeometry width="125" height="63" as="geometry" />
        </mxCell>
        <mxCell id="OhTDjM6RpMIjNVaFcS4Z-355" value="Logged-in client (Primary business)&lt;span&gt;&lt;br&gt;&lt;/span&gt;" style="shape=partialRectangle;html=1;whiteSpace=wrap;connectable=0;fillColor=none;top=0;left=0;bottom=0;right=0;overflow=hidden;" parent="OhTDjM6RpMIjNVaFcS4Z-353" vertex="1">
          <mxGeometry x="125" width="125" height="63" as="geometry" />
        </mxCell>
        <mxCell id="OhTDjM6RpMIjNVaFcS4Z-356" value="" style="shape=partialRectangle;html=1;whiteSpace=wrap;collapsible=0;dropTarget=0;pointerEvents=0;fillColor=none;top=0;left=0;bottom=0;right=0;points=[[0,0.5],[1,0.5]];portConstraint=eastwest;" parent="OhTDjM6RpMIjNVaFcS4Z-340" vertex="1">
          <mxGeometry y="316" width="250" height="63" as="geometry" />
        </mxCell>
        <mxCell id="OhTDjM6RpMIjNVaFcS4Z-357" value="Description" style="shape=partialRectangle;html=1;whiteSpace=wrap;connectable=0;fillColor=none;top=0;left=0;bottom=0;right=0;overflow=hidden;" parent="OhTDjM6RpMIjNVaFcS4Z-356" vertex="1">
          <mxGeometry width="125" height="63" as="geometry" />
        </mxCell>
        <mxCell id="OhTDjM6RpMIjNVaFcS4Z-358" value="&lt;span&gt;Add or remove music from play list&lt;/span&gt;" style="shape=partialRectangle;html=1;whiteSpace=wrap;connectable=0;fillColor=none;top=0;left=0;bottom=0;right=0;overflow=hidden;" parent="OhTDjM6RpMIjNVaFcS4Z-356" vertex="1">
          <mxGeometry x="125" width="125" height="63" as="geometry" />
        </mxCell>
        <mxCell id="OhTDjM6RpMIjNVaFcS4Z-359" value="" style="shape=table;html=1;whiteSpace=wrap;startSize=0;container=1;collapsible=0;childLayout=tableLayout;" parent="1" vertex="1">
          <mxGeometry x="-880" y="-560" width="250" height="379" as="geometry" />
        </mxCell>
        <mxCell id="OhTDjM6RpMIjNVaFcS4Z-360" value="" style="shape=partialRectangle;html=1;whiteSpace=wrap;collapsible=0;dropTarget=0;pointerEvents=0;fillColor=none;top=0;left=0;bottom=0;right=0;points=[[0,0.5],[1,0.5]];portConstraint=eastwest;" parent="OhTDjM6RpMIjNVaFcS4Z-359" vertex="1">
          <mxGeometry width="250" height="63" as="geometry" />
        </mxCell>
        <mxCell id="OhTDjM6RpMIjNVaFcS4Z-361" value="Name" style="shape=partialRectangle;html=1;whiteSpace=wrap;connectable=0;fillColor=none;top=0;left=0;bottom=0;right=0;overflow=hidden;" parent="OhTDjM6RpMIjNVaFcS4Z-360" vertex="1">
          <mxGeometry width="125" height="63" as="geometry" />
        </mxCell>
        <mxCell id="OhTDjM6RpMIjNVaFcS4Z-362" value="&lt;span&gt;Add/Remove play list&lt;/span&gt;" style="shape=partialRectangle;html=1;whiteSpace=wrap;connectable=0;fillColor=none;top=0;left=0;bottom=0;right=0;overflow=hidden;" parent="OhTDjM6RpMIjNVaFcS4Z-360" vertex="1">
          <mxGeometry x="125" width="125" height="63" as="geometry" />
        </mxCell>
        <mxCell id="OhTDjM6RpMIjNVaFcS4Z-363" value="" style="shape=partialRectangle;html=1;whiteSpace=wrap;collapsible=0;dropTarget=0;pointerEvents=0;fillColor=none;top=0;left=0;bottom=0;right=0;points=[[0,0.5],[1,0.5]];portConstraint=eastwest;" parent="OhTDjM6RpMIjNVaFcS4Z-359" vertex="1">
          <mxGeometry y="63" width="250" height="64" as="geometry" />
        </mxCell>
        <mxCell id="OhTDjM6RpMIjNVaFcS4Z-364" value="ID" style="shape=partialRectangle;html=1;whiteSpace=wrap;connectable=0;fillColor=none;top=0;left=0;bottom=0;right=0;overflow=hidden;" parent="OhTDjM6RpMIjNVaFcS4Z-363" vertex="1">
          <mxGeometry width="125" height="64" as="geometry" />
        </mxCell>
        <mxCell id="OhTDjM6RpMIjNVaFcS4Z-365" value="&lt;span&gt;Add/Remove play list&lt;/span&gt;" style="shape=partialRectangle;html=1;whiteSpace=wrap;connectable=0;fillColor=none;top=0;left=0;bottom=0;right=0;overflow=hidden;" parent="OhTDjM6RpMIjNVaFcS4Z-363" vertex="1">
          <mxGeometry x="125" width="125" height="64" as="geometry" />
        </mxCell>
        <mxCell id="OhTDjM6RpMIjNVaFcS4Z-366" value="" style="shape=partialRectangle;html=1;whiteSpace=wrap;collapsible=0;dropTarget=0;pointerEvents=0;fillColor=none;top=0;left=0;bottom=0;right=0;points=[[0,0.5],[1,0.5]];portConstraint=eastwest;" parent="OhTDjM6RpMIjNVaFcS4Z-359" vertex="1">
          <mxGeometry y="127" width="250" height="63" as="geometry" />
        </mxCell>
        <mxCell id="OhTDjM6RpMIjNVaFcS4Z-367" value="Priority" style="shape=partialRectangle;html=1;whiteSpace=wrap;connectable=0;fillColor=none;top=0;left=0;bottom=0;right=0;overflow=hidden;" parent="OhTDjM6RpMIjNVaFcS4Z-366" vertex="1">
          <mxGeometry width="125" height="63" as="geometry" />
        </mxCell>
        <mxCell id="OhTDjM6RpMIjNVaFcS4Z-368" value="Medium" style="shape=partialRectangle;html=1;whiteSpace=wrap;connectable=0;fillColor=none;top=0;left=0;bottom=0;right=0;overflow=hidden;" parent="OhTDjM6RpMIjNVaFcS4Z-366" vertex="1">
          <mxGeometry x="125" width="125" height="63" as="geometry" />
        </mxCell>
        <mxCell id="OhTDjM6RpMIjNVaFcS4Z-369" value="" style="shape=partialRectangle;html=1;whiteSpace=wrap;collapsible=0;dropTarget=0;pointerEvents=0;fillColor=none;top=0;left=0;bottom=0;right=0;points=[[0,0.5],[1,0.5]];portConstraint=eastwest;" parent="OhTDjM6RpMIjNVaFcS4Z-359" vertex="1">
          <mxGeometry y="190" width="250" height="63" as="geometry" />
        </mxCell>
        <mxCell id="OhTDjM6RpMIjNVaFcS4Z-370" value="Primary Business Actor:" style="shape=partialRectangle;html=1;whiteSpace=wrap;connectable=0;fillColor=none;top=0;left=0;bottom=0;right=0;overflow=hidden;" parent="OhTDjM6RpMIjNVaFcS4Z-369" vertex="1">
          <mxGeometry width="125" height="63" as="geometry" />
        </mxCell>
        <mxCell id="OhTDjM6RpMIjNVaFcS4Z-371" value="&lt;span&gt;Logged-in client&amp;nbsp;&lt;/span&gt;" style="shape=partialRectangle;html=1;whiteSpace=wrap;connectable=0;fillColor=none;top=0;left=0;bottom=0;right=0;overflow=hidden;" parent="OhTDjM6RpMIjNVaFcS4Z-369" vertex="1">
          <mxGeometry x="125" width="125" height="63" as="geometry" />
        </mxCell>
        <mxCell id="OhTDjM6RpMIjNVaFcS4Z-372" value="" style="shape=partialRectangle;html=1;whiteSpace=wrap;collapsible=0;dropTarget=0;pointerEvents=0;fillColor=none;top=0;left=0;bottom=0;right=0;points=[[0,0.5],[1,0.5]];portConstraint=eastwest;" parent="OhTDjM6RpMIjNVaFcS4Z-359" vertex="1">
          <mxGeometry y="253" width="250" height="63" as="geometry" />
        </mxCell>
        <mxCell id="OhTDjM6RpMIjNVaFcS4Z-373" value="Other Participating Actors:" style="shape=partialRectangle;html=1;whiteSpace=wrap;connectable=0;fillColor=none;top=0;left=0;bottom=0;right=0;overflow=hidden;" parent="OhTDjM6RpMIjNVaFcS4Z-372" vertex="1">
          <mxGeometry width="125" height="63" as="geometry" />
        </mxCell>
        <mxCell id="OhTDjM6RpMIjNVaFcS4Z-374" value="&lt;span&gt;Logged-in client&amp;nbsp;&lt;br&gt;(Primary business)&lt;br&gt;&lt;/span&gt;" style="shape=partialRectangle;html=1;whiteSpace=wrap;connectable=0;fillColor=none;top=0;left=0;bottom=0;right=0;overflow=hidden;" parent="OhTDjM6RpMIjNVaFcS4Z-372" vertex="1">
          <mxGeometry x="125" width="125" height="63" as="geometry" />
        </mxCell>
        <mxCell id="OhTDjM6RpMIjNVaFcS4Z-375" value="" style="shape=partialRectangle;html=1;whiteSpace=wrap;collapsible=0;dropTarget=0;pointerEvents=0;fillColor=none;top=0;left=0;bottom=0;right=0;points=[[0,0.5],[1,0.5]];portConstraint=eastwest;" parent="OhTDjM6RpMIjNVaFcS4Z-359" vertex="1">
          <mxGeometry y="316" width="250" height="63" as="geometry" />
        </mxCell>
        <mxCell id="OhTDjM6RpMIjNVaFcS4Z-376" value="Description" style="shape=partialRectangle;html=1;whiteSpace=wrap;connectable=0;fillColor=none;top=0;left=0;bottom=0;right=0;overflow=hidden;" parent="OhTDjM6RpMIjNVaFcS4Z-375" vertex="1">
          <mxGeometry width="125" height="63" as="geometry" />
        </mxCell>
        <mxCell id="OhTDjM6RpMIjNVaFcS4Z-377" value="&lt;meta charset=&quot;utf-8&quot;&gt;&lt;span style=&quot;color: rgb(0, 0, 0); font-family: helvetica; font-size: 12px; font-style: normal; font-weight: 400; letter-spacing: normal; text-align: center; text-indent: 0px; text-transform: none; word-spacing: 0px; background-color: rgb(248, 249, 250); display: inline; float: none;&quot;&gt;Create a new play list of remove an old one&lt;/span&gt;" style="shape=partialRectangle;html=1;whiteSpace=wrap;connectable=0;fillColor=none;top=0;left=0;bottom=0;right=0;overflow=hidden;" parent="OhTDjM6RpMIjNVaFcS4Z-375" vertex="1">
          <mxGeometry x="125" width="125" height="63" as="geometry" />
        </mxCell>
        <mxCell id="OhTDjM6RpMIjNVaFcS4Z-378" value="" style="shape=table;html=1;whiteSpace=wrap;startSize=0;container=1;collapsible=0;childLayout=tableLayout;" parent="1" vertex="1">
          <mxGeometry x="-620" y="-560" width="250" height="379" as="geometry" />
        </mxCell>
        <mxCell id="OhTDjM6RpMIjNVaFcS4Z-379" value="" style="shape=partialRectangle;html=1;whiteSpace=wrap;collapsible=0;dropTarget=0;pointerEvents=0;fillColor=none;top=0;left=0;bottom=0;right=0;points=[[0,0.5],[1,0.5]];portConstraint=eastwest;" parent="OhTDjM6RpMIjNVaFcS4Z-378" vertex="1">
          <mxGeometry width="250" height="63" as="geometry" />
        </mxCell>
        <mxCell id="OhTDjM6RpMIjNVaFcS4Z-380" value="Name" style="shape=partialRectangle;html=1;whiteSpace=wrap;connectable=0;fillColor=none;top=0;left=0;bottom=0;right=0;overflow=hidden;" parent="OhTDjM6RpMIjNVaFcS4Z-379" vertex="1">
          <mxGeometry width="125" height="63" as="geometry" />
        </mxCell>
        <mxCell id="OhTDjM6RpMIjNVaFcS4Z-381" value="&lt;span&gt;Search music and play it&lt;/span&gt;" style="shape=partialRectangle;html=1;whiteSpace=wrap;connectable=0;fillColor=none;top=0;left=0;bottom=0;right=0;overflow=hidden;" parent="OhTDjM6RpMIjNVaFcS4Z-379" vertex="1">
          <mxGeometry x="125" width="125" height="63" as="geometry" />
        </mxCell>
        <mxCell id="OhTDjM6RpMIjNVaFcS4Z-382" value="" style="shape=partialRectangle;html=1;whiteSpace=wrap;collapsible=0;dropTarget=0;pointerEvents=0;fillColor=none;top=0;left=0;bottom=0;right=0;points=[[0,0.5],[1,0.5]];portConstraint=eastwest;" parent="OhTDjM6RpMIjNVaFcS4Z-378" vertex="1">
          <mxGeometry y="63" width="250" height="64" as="geometry" />
        </mxCell>
        <mxCell id="OhTDjM6RpMIjNVaFcS4Z-383" value="ID" style="shape=partialRectangle;html=1;whiteSpace=wrap;connectable=0;fillColor=none;top=0;left=0;bottom=0;right=0;overflow=hidden;" parent="OhTDjM6RpMIjNVaFcS4Z-382" vertex="1">
          <mxGeometry width="125" height="64" as="geometry" />
        </mxCell>
        <mxCell id="OhTDjM6RpMIjNVaFcS4Z-384" value="&lt;span&gt;Search music and play it&lt;/span&gt;" style="shape=partialRectangle;html=1;whiteSpace=wrap;connectable=0;fillColor=none;top=0;left=0;bottom=0;right=0;overflow=hidden;" parent="OhTDjM6RpMIjNVaFcS4Z-382" vertex="1">
          <mxGeometry x="125" width="125" height="64" as="geometry" />
        </mxCell>
        <mxCell id="OhTDjM6RpMIjNVaFcS4Z-385" value="" style="shape=partialRectangle;html=1;whiteSpace=wrap;collapsible=0;dropTarget=0;pointerEvents=0;fillColor=none;top=0;left=0;bottom=0;right=0;points=[[0,0.5],[1,0.5]];portConstraint=eastwest;" parent="OhTDjM6RpMIjNVaFcS4Z-378" vertex="1">
          <mxGeometry y="127" width="250" height="63" as="geometry" />
        </mxCell>
        <mxCell id="OhTDjM6RpMIjNVaFcS4Z-386" value="Priority" style="shape=partialRectangle;html=1;whiteSpace=wrap;connectable=0;fillColor=none;top=0;left=0;bottom=0;right=0;overflow=hidden;" parent="OhTDjM6RpMIjNVaFcS4Z-385" vertex="1">
          <mxGeometry width="125" height="63" as="geometry" />
        </mxCell>
        <mxCell id="OhTDjM6RpMIjNVaFcS4Z-387" value="High" style="shape=partialRectangle;html=1;whiteSpace=wrap;connectable=0;fillColor=none;top=0;left=0;bottom=0;right=0;overflow=hidden;" parent="OhTDjM6RpMIjNVaFcS4Z-385" vertex="1">
          <mxGeometry x="125" width="125" height="63" as="geometry" />
        </mxCell>
        <mxCell id="OhTDjM6RpMIjNVaFcS4Z-388" value="" style="shape=partialRectangle;html=1;whiteSpace=wrap;collapsible=0;dropTarget=0;pointerEvents=0;fillColor=none;top=0;left=0;bottom=0;right=0;points=[[0,0.5],[1,0.5]];portConstraint=eastwest;" parent="OhTDjM6RpMIjNVaFcS4Z-378" vertex="1">
          <mxGeometry y="190" width="250" height="63" as="geometry" />
        </mxCell>
        <mxCell id="OhTDjM6RpMIjNVaFcS4Z-389" value="Primary Business Actor:" style="shape=partialRectangle;html=1;whiteSpace=wrap;connectable=0;fillColor=none;top=0;left=0;bottom=0;right=0;overflow=hidden;" parent="OhTDjM6RpMIjNVaFcS4Z-388" vertex="1">
          <mxGeometry width="125" height="63" as="geometry" />
        </mxCell>
        <mxCell id="OhTDjM6RpMIjNVaFcS4Z-390" value="&lt;span&gt;Logged-in client&amp;nbsp;&lt;/span&gt;" style="shape=partialRectangle;html=1;whiteSpace=wrap;connectable=0;fillColor=none;top=0;left=0;bottom=0;right=0;overflow=hidden;" parent="OhTDjM6RpMIjNVaFcS4Z-388" vertex="1">
          <mxGeometry x="125" width="125" height="63" as="geometry" />
        </mxCell>
        <mxCell id="OhTDjM6RpMIjNVaFcS4Z-391" value="" style="shape=partialRectangle;html=1;whiteSpace=wrap;collapsible=0;dropTarget=0;pointerEvents=0;fillColor=none;top=0;left=0;bottom=0;right=0;points=[[0,0.5],[1,0.5]];portConstraint=eastwest;" parent="OhTDjM6RpMIjNVaFcS4Z-378" vertex="1">
          <mxGeometry y="253" width="250" height="63" as="geometry" />
        </mxCell>
        <mxCell id="OhTDjM6RpMIjNVaFcS4Z-392" value="Other Participating Actors:" style="shape=partialRectangle;html=1;whiteSpace=wrap;connectable=0;fillColor=none;top=0;left=0;bottom=0;right=0;overflow=hidden;" parent="OhTDjM6RpMIjNVaFcS4Z-391" vertex="1">
          <mxGeometry width="125" height="63" as="geometry" />
        </mxCell>
        <mxCell id="OhTDjM6RpMIjNVaFcS4Z-393" value="&lt;span&gt;Logged-in client&amp;nbsp;&lt;br&gt;(Primary business)&lt;br&gt;&lt;/span&gt;" style="shape=partialRectangle;html=1;whiteSpace=wrap;connectable=0;fillColor=none;top=0;left=0;bottom=0;right=0;overflow=hidden;" parent="OhTDjM6RpMIjNVaFcS4Z-391" vertex="1">
          <mxGeometry x="125" width="125" height="63" as="geometry" />
        </mxCell>
        <mxCell id="OhTDjM6RpMIjNVaFcS4Z-394" value="" style="shape=partialRectangle;html=1;whiteSpace=wrap;collapsible=0;dropTarget=0;pointerEvents=0;fillColor=none;top=0;left=0;bottom=0;right=0;points=[[0,0.5],[1,0.5]];portConstraint=eastwest;" parent="OhTDjM6RpMIjNVaFcS4Z-378" vertex="1">
          <mxGeometry y="316" width="250" height="63" as="geometry" />
        </mxCell>
        <mxCell id="OhTDjM6RpMIjNVaFcS4Z-395" value="Description" style="shape=partialRectangle;html=1;whiteSpace=wrap;connectable=0;fillColor=none;top=0;left=0;bottom=0;right=0;overflow=hidden;" parent="OhTDjM6RpMIjNVaFcS4Z-394" vertex="1">
          <mxGeometry width="125" height="63" as="geometry" />
        </mxCell>
        <mxCell id="OhTDjM6RpMIjNVaFcS4Z-396" value="&lt;span&gt;Search for the music in search bar and select the music then play it&lt;/span&gt;" style="shape=partialRectangle;html=1;whiteSpace=wrap;connectable=0;fillColor=none;top=0;left=0;bottom=0;right=0;overflow=hidden;" parent="OhTDjM6RpMIjNVaFcS4Z-394" vertex="1">
          <mxGeometry x="125" width="125" height="63" as="geometry" />
        </mxCell>
        <mxCell id="OhTDjM6RpMIjNVaFcS4Z-397" value="" style="shape=table;html=1;whiteSpace=wrap;startSize=0;container=1;collapsible=0;childLayout=tableLayout;" parent="1" vertex="1">
          <mxGeometry x="-360" y="-560" width="250" height="380" as="geometry" />
        </mxCell>
        <mxCell id="OhTDjM6RpMIjNVaFcS4Z-398" value="" style="shape=partialRectangle;html=1;whiteSpace=wrap;collapsible=0;dropTarget=0;pointerEvents=0;fillColor=none;top=0;left=0;bottom=0;right=0;points=[[0,0.5],[1,0.5]];portConstraint=eastwest;" parent="OhTDjM6RpMIjNVaFcS4Z-397" vertex="1">
          <mxGeometry width="250" height="63" as="geometry" />
        </mxCell>
        <mxCell id="OhTDjM6RpMIjNVaFcS4Z-399" value="Name" style="shape=partialRectangle;html=1;whiteSpace=wrap;connectable=0;fillColor=none;top=0;left=0;bottom=0;right=0;overflow=hidden;" parent="OhTDjM6RpMIjNVaFcS4Z-398" vertex="1">
          <mxGeometry width="125" height="63" as="geometry" />
        </mxCell>
        <mxCell id="OhTDjM6RpMIjNVaFcS4Z-400" value="&lt;span&gt;Play music from playlist&lt;/span&gt;" style="shape=partialRectangle;html=1;whiteSpace=wrap;connectable=0;fillColor=none;top=0;left=0;bottom=0;right=0;overflow=hidden;" parent="OhTDjM6RpMIjNVaFcS4Z-398" vertex="1">
          <mxGeometry x="125" width="125" height="63" as="geometry" />
        </mxCell>
        <mxCell id="OhTDjM6RpMIjNVaFcS4Z-401" value="" style="shape=partialRectangle;html=1;whiteSpace=wrap;collapsible=0;dropTarget=0;pointerEvents=0;fillColor=none;top=0;left=0;bottom=0;right=0;points=[[0,0.5],[1,0.5]];portConstraint=eastwest;" parent="OhTDjM6RpMIjNVaFcS4Z-397" vertex="1">
          <mxGeometry y="63" width="250" height="64" as="geometry" />
        </mxCell>
        <mxCell id="OhTDjM6RpMIjNVaFcS4Z-402" value="ID" style="shape=partialRectangle;html=1;whiteSpace=wrap;connectable=0;fillColor=none;top=0;left=0;bottom=0;right=0;overflow=hidden;" parent="OhTDjM6RpMIjNVaFcS4Z-401" vertex="1">
          <mxGeometry width="125" height="64" as="geometry" />
        </mxCell>
        <mxCell id="OhTDjM6RpMIjNVaFcS4Z-403" value="&lt;span&gt;Play music from playlist&lt;/span&gt;" style="shape=partialRectangle;html=1;whiteSpace=wrap;connectable=0;fillColor=none;top=0;left=0;bottom=0;right=0;overflow=hidden;" parent="OhTDjM6RpMIjNVaFcS4Z-401" vertex="1">
          <mxGeometry x="125" width="125" height="64" as="geometry" />
        </mxCell>
        <mxCell id="OhTDjM6RpMIjNVaFcS4Z-404" value="" style="shape=partialRectangle;html=1;whiteSpace=wrap;collapsible=0;dropTarget=0;pointerEvents=0;fillColor=none;top=0;left=0;bottom=0;right=0;points=[[0,0.5],[1,0.5]];portConstraint=eastwest;" parent="OhTDjM6RpMIjNVaFcS4Z-397" vertex="1">
          <mxGeometry y="127" width="250" height="63" as="geometry" />
        </mxCell>
        <mxCell id="OhTDjM6RpMIjNVaFcS4Z-405" value="Priority" style="shape=partialRectangle;html=1;whiteSpace=wrap;connectable=0;fillColor=none;top=0;left=0;bottom=0;right=0;overflow=hidden;" parent="OhTDjM6RpMIjNVaFcS4Z-404" vertex="1">
          <mxGeometry width="125" height="63" as="geometry" />
        </mxCell>
        <mxCell id="OhTDjM6RpMIjNVaFcS4Z-406" value="Medium" style="shape=partialRectangle;html=1;whiteSpace=wrap;connectable=0;fillColor=none;top=0;left=0;bottom=0;right=0;overflow=hidden;" parent="OhTDjM6RpMIjNVaFcS4Z-404" vertex="1">
          <mxGeometry x="125" width="125" height="63" as="geometry" />
        </mxCell>
        <mxCell id="OhTDjM6RpMIjNVaFcS4Z-407" value="" style="shape=partialRectangle;html=1;whiteSpace=wrap;collapsible=0;dropTarget=0;pointerEvents=0;fillColor=none;top=0;left=0;bottom=0;right=0;points=[[0,0.5],[1,0.5]];portConstraint=eastwest;" parent="OhTDjM6RpMIjNVaFcS4Z-397" vertex="1">
          <mxGeometry y="190" width="250" height="40" as="geometry" />
        </mxCell>
        <mxCell id="OhTDjM6RpMIjNVaFcS4Z-408" value="Primary Business Actor:" style="shape=partialRectangle;html=1;whiteSpace=wrap;connectable=0;fillColor=none;top=0;left=0;bottom=0;right=0;overflow=hidden;" parent="OhTDjM6RpMIjNVaFcS4Z-407" vertex="1">
          <mxGeometry width="125" height="40" as="geometry" />
        </mxCell>
        <mxCell id="OhTDjM6RpMIjNVaFcS4Z-409" value="&lt;span&gt;Logged-in client&amp;nbsp;&lt;/span&gt;" style="shape=partialRectangle;html=1;whiteSpace=wrap;connectable=0;fillColor=none;top=0;left=0;bottom=0;right=0;overflow=hidden;" parent="OhTDjM6RpMIjNVaFcS4Z-407" vertex="1">
          <mxGeometry x="125" width="125" height="40" as="geometry" />
        </mxCell>
        <mxCell id="OhTDjM6RpMIjNVaFcS4Z-410" value="" style="shape=partialRectangle;html=1;whiteSpace=wrap;collapsible=0;dropTarget=0;pointerEvents=0;fillColor=none;top=0;left=0;bottom=0;right=0;points=[[0,0.5],[1,0.5]];portConstraint=eastwest;" parent="OhTDjM6RpMIjNVaFcS4Z-397" vertex="1">
          <mxGeometry y="230" width="250" height="47" as="geometry" />
        </mxCell>
        <mxCell id="OhTDjM6RpMIjNVaFcS4Z-411" value="Other Participating Actors:" style="shape=partialRectangle;html=1;whiteSpace=wrap;connectable=0;fillColor=none;top=0;left=0;bottom=0;right=0;overflow=hidden;" parent="OhTDjM6RpMIjNVaFcS4Z-410" vertex="1">
          <mxGeometry width="125" height="47" as="geometry" />
        </mxCell>
        <mxCell id="OhTDjM6RpMIjNVaFcS4Z-412" value="&lt;span&gt;Logged-in client&amp;nbsp;&lt;br&gt;(Primary business)&lt;br&gt;&lt;/span&gt;" style="shape=partialRectangle;html=1;whiteSpace=wrap;connectable=0;fillColor=none;top=0;left=0;bottom=0;right=0;overflow=hidden;" parent="OhTDjM6RpMIjNVaFcS4Z-410" vertex="1">
          <mxGeometry x="125" width="125" height="47" as="geometry" />
        </mxCell>
        <mxCell id="OhTDjM6RpMIjNVaFcS4Z-413" value="" style="shape=partialRectangle;html=1;whiteSpace=wrap;collapsible=0;dropTarget=0;pointerEvents=0;fillColor=none;top=0;left=0;bottom=0;right=0;points=[[0,0.5],[1,0.5]];portConstraint=eastwest;" parent="OhTDjM6RpMIjNVaFcS4Z-397" vertex="1">
          <mxGeometry y="277" width="250" height="103" as="geometry" />
        </mxCell>
        <mxCell id="OhTDjM6RpMIjNVaFcS4Z-414" value="Description" style="shape=partialRectangle;html=1;whiteSpace=wrap;connectable=0;fillColor=none;top=0;left=0;bottom=0;right=0;overflow=hidden;" parent="OhTDjM6RpMIjNVaFcS4Z-413" vertex="1">
          <mxGeometry width="125" height="103" as="geometry" />
        </mxCell>
        <mxCell id="OhTDjM6RpMIjNVaFcS4Z-415" value="&lt;span&gt;Select a music from playlist to play&lt;/span&gt;&lt;br&gt;&lt;span&gt;If the account iis primum the user can skip music or go a specifed music&lt;/span&gt;" style="shape=partialRectangle;html=1;whiteSpace=wrap;connectable=0;fillColor=none;top=0;left=0;bottom=0;right=0;overflow=hidden;" parent="OhTDjM6RpMIjNVaFcS4Z-413" vertex="1">
          <mxGeometry x="125" width="125" height="103" as="geometry" />
        </mxCell>
        <mxCell id="OhTDjM6RpMIjNVaFcS4Z-416" value="" style="shape=table;html=1;whiteSpace=wrap;startSize=0;container=1;collapsible=0;childLayout=tableLayout;" parent="1" vertex="1">
          <mxGeometry x="-100" y="-560" width="250" height="380" as="geometry" />
        </mxCell>
        <mxCell id="OhTDjM6RpMIjNVaFcS4Z-417" value="" style="shape=partialRectangle;html=1;whiteSpace=wrap;collapsible=0;dropTarget=0;pointerEvents=0;fillColor=none;top=0;left=0;bottom=0;right=0;points=[[0,0.5],[1,0.5]];portConstraint=eastwest;" parent="OhTDjM6RpMIjNVaFcS4Z-416" vertex="1">
          <mxGeometry width="250" height="69" as="geometry" />
        </mxCell>
        <mxCell id="OhTDjM6RpMIjNVaFcS4Z-418" value="Name" style="shape=partialRectangle;html=1;whiteSpace=wrap;connectable=0;fillColor=none;top=0;left=0;bottom=0;right=0;overflow=hidden;" parent="OhTDjM6RpMIjNVaFcS4Z-417" vertex="1">
          <mxGeometry width="125" height="69" as="geometry" />
        </mxCell>
        <mxCell id="OhTDjM6RpMIjNVaFcS4Z-419" value="&lt;span&gt;Play music&lt;/span&gt;" style="shape=partialRectangle;html=1;whiteSpace=wrap;connectable=0;fillColor=none;top=0;left=0;bottom=0;right=0;overflow=hidden;" parent="OhTDjM6RpMIjNVaFcS4Z-417" vertex="1">
          <mxGeometry x="125" width="125" height="69" as="geometry" />
        </mxCell>
        <mxCell id="OhTDjM6RpMIjNVaFcS4Z-420" value="" style="shape=partialRectangle;html=1;whiteSpace=wrap;collapsible=0;dropTarget=0;pointerEvents=0;fillColor=none;top=0;left=0;bottom=0;right=0;points=[[0,0.5],[1,0.5]];portConstraint=eastwest;" parent="OhTDjM6RpMIjNVaFcS4Z-416" vertex="1">
          <mxGeometry y="69" width="250" height="51" as="geometry" />
        </mxCell>
        <mxCell id="OhTDjM6RpMIjNVaFcS4Z-421" value="ID" style="shape=partialRectangle;html=1;whiteSpace=wrap;connectable=0;fillColor=none;top=0;left=0;bottom=0;right=0;overflow=hidden;" parent="OhTDjM6RpMIjNVaFcS4Z-420" vertex="1">
          <mxGeometry width="125" height="51" as="geometry" />
        </mxCell>
        <mxCell id="OhTDjM6RpMIjNVaFcS4Z-422" value="&lt;span&gt;Play music&lt;/span&gt;" style="shape=partialRectangle;html=1;whiteSpace=wrap;connectable=0;fillColor=none;top=0;left=0;bottom=0;right=0;overflow=hidden;" parent="OhTDjM6RpMIjNVaFcS4Z-420" vertex="1">
          <mxGeometry x="125" width="125" height="51" as="geometry" />
        </mxCell>
        <mxCell id="OhTDjM6RpMIjNVaFcS4Z-423" value="" style="shape=partialRectangle;html=1;whiteSpace=wrap;collapsible=0;dropTarget=0;pointerEvents=0;fillColor=none;top=0;left=0;bottom=0;right=0;points=[[0,0.5],[1,0.5]];portConstraint=eastwest;" parent="OhTDjM6RpMIjNVaFcS4Z-416" vertex="1">
          <mxGeometry y="120" width="250" height="37" as="geometry" />
        </mxCell>
        <mxCell id="OhTDjM6RpMIjNVaFcS4Z-424" value="Priority" style="shape=partialRectangle;html=1;whiteSpace=wrap;connectable=0;fillColor=none;top=0;left=0;bottom=0;right=0;overflow=hidden;" parent="OhTDjM6RpMIjNVaFcS4Z-423" vertex="1">
          <mxGeometry width="125" height="37" as="geometry" />
        </mxCell>
        <mxCell id="OhTDjM6RpMIjNVaFcS4Z-425" value="High" style="shape=partialRectangle;html=1;whiteSpace=wrap;connectable=0;fillColor=none;top=0;left=0;bottom=0;right=0;overflow=hidden;" parent="OhTDjM6RpMIjNVaFcS4Z-423" vertex="1">
          <mxGeometry x="125" width="125" height="37" as="geometry" />
        </mxCell>
        <mxCell id="OhTDjM6RpMIjNVaFcS4Z-426" value="" style="shape=partialRectangle;html=1;whiteSpace=wrap;collapsible=0;dropTarget=0;pointerEvents=0;fillColor=none;top=0;left=0;bottom=0;right=0;points=[[0,0.5],[1,0.5]];portConstraint=eastwest;" parent="OhTDjM6RpMIjNVaFcS4Z-416" vertex="1">
          <mxGeometry y="157" width="250" height="61" as="geometry" />
        </mxCell>
        <mxCell id="OhTDjM6RpMIjNVaFcS4Z-427" value="Primary Business Actor:" style="shape=partialRectangle;html=1;whiteSpace=wrap;connectable=0;fillColor=none;top=0;left=0;bottom=0;right=0;overflow=hidden;" parent="OhTDjM6RpMIjNVaFcS4Z-426" vertex="1">
          <mxGeometry width="125" height="61" as="geometry" />
        </mxCell>
        <mxCell id="OhTDjM6RpMIjNVaFcS4Z-428" value="&lt;span&gt;Logged-in client&amp;nbsp;&lt;/span&gt;" style="shape=partialRectangle;html=1;whiteSpace=wrap;connectable=0;fillColor=none;top=0;left=0;bottom=0;right=0;overflow=hidden;" parent="OhTDjM6RpMIjNVaFcS4Z-426" vertex="1">
          <mxGeometry x="125" width="125" height="61" as="geometry" />
        </mxCell>
        <mxCell id="OhTDjM6RpMIjNVaFcS4Z-429" value="" style="shape=partialRectangle;html=1;whiteSpace=wrap;collapsible=0;dropTarget=0;pointerEvents=0;fillColor=none;top=0;left=0;bottom=0;right=0;points=[[0,0.5],[1,0.5]];portConstraint=eastwest;" parent="OhTDjM6RpMIjNVaFcS4Z-416" vertex="1">
          <mxGeometry y="218" width="250" height="42" as="geometry" />
        </mxCell>
        <mxCell id="OhTDjM6RpMIjNVaFcS4Z-430" value="Other Participating Actors:" style="shape=partialRectangle;html=1;whiteSpace=wrap;connectable=0;fillColor=none;top=0;left=0;bottom=0;right=0;overflow=hidden;" parent="OhTDjM6RpMIjNVaFcS4Z-429" vertex="1">
          <mxGeometry width="125" height="42" as="geometry" />
        </mxCell>
        <mxCell id="OhTDjM6RpMIjNVaFcS4Z-431" value="&lt;span&gt;Logged-in client&amp;nbsp;&lt;br&gt;(Primary business)&lt;br&gt;&lt;/span&gt;" style="shape=partialRectangle;html=1;whiteSpace=wrap;connectable=0;fillColor=none;top=0;left=0;bottom=0;right=0;overflow=hidden;" parent="OhTDjM6RpMIjNVaFcS4Z-429" vertex="1">
          <mxGeometry x="125" width="125" height="42" as="geometry" />
        </mxCell>
        <mxCell id="OhTDjM6RpMIjNVaFcS4Z-432" value="" style="shape=partialRectangle;html=1;whiteSpace=wrap;collapsible=0;dropTarget=0;pointerEvents=0;fillColor=none;top=0;left=0;bottom=0;right=0;points=[[0,0.5],[1,0.5]];portConstraint=eastwest;" parent="OhTDjM6RpMIjNVaFcS4Z-416" vertex="1">
          <mxGeometry y="260" width="250" height="120" as="geometry" />
        </mxCell>
        <mxCell id="OhTDjM6RpMIjNVaFcS4Z-433" value="Description" style="shape=partialRectangle;html=1;whiteSpace=wrap;connectable=0;fillColor=none;top=0;left=0;bottom=0;right=0;overflow=hidden;" parent="OhTDjM6RpMIjNVaFcS4Z-432" vertex="1">
          <mxGeometry width="125" height="120" as="geometry" />
        </mxCell>
        <mxCell id="OhTDjM6RpMIjNVaFcS4Z-434" value="&lt;span&gt;If the user is preimum he/she can download the music. user can select quality of music and fast forward/rewind the music or stop and resumt it&lt;/span&gt;" style="shape=partialRectangle;html=1;whiteSpace=wrap;connectable=0;fillColor=none;top=0;left=0;bottom=0;right=0;overflow=hidden;" parent="OhTDjM6RpMIjNVaFcS4Z-432" vertex="1">
          <mxGeometry x="125" width="125" height="120" as="geometry" />
        </mxCell>
        <mxCell id="OhTDjM6RpMIjNVaFcS4Z-435" value="" style="shape=table;html=1;whiteSpace=wrap;startSize=0;container=1;collapsible=0;childLayout=tableLayout;" parent="1" vertex="1">
          <mxGeometry x="160" y="-560" width="250" height="380" as="geometry" />
        </mxCell>
        <mxCell id="OhTDjM6RpMIjNVaFcS4Z-436" value="" style="shape=partialRectangle;html=1;whiteSpace=wrap;collapsible=0;dropTarget=0;pointerEvents=0;fillColor=none;top=0;left=0;bottom=0;right=0;points=[[0,0.5],[1,0.5]];portConstraint=eastwest;" parent="OhTDjM6RpMIjNVaFcS4Z-435" vertex="1">
          <mxGeometry width="250" height="63" as="geometry" />
        </mxCell>
        <mxCell id="OhTDjM6RpMIjNVaFcS4Z-437" value="Name" style="shape=partialRectangle;html=1;whiteSpace=wrap;connectable=0;fillColor=none;top=0;left=0;bottom=0;right=0;overflow=hidden;" parent="OhTDjM6RpMIjNVaFcS4Z-436" vertex="1">
          <mxGeometry width="125" height="63" as="geometry" />
        </mxCell>
        <mxCell id="OhTDjM6RpMIjNVaFcS4Z-438" value="&lt;span&gt;Follow a publisher&lt;/span&gt;" style="shape=partialRectangle;html=1;whiteSpace=wrap;connectable=0;fillColor=none;top=0;left=0;bottom=0;right=0;overflow=hidden;" parent="OhTDjM6RpMIjNVaFcS4Z-436" vertex="1">
          <mxGeometry x="125" width="125" height="63" as="geometry" />
        </mxCell>
        <mxCell id="OhTDjM6RpMIjNVaFcS4Z-439" value="" style="shape=partialRectangle;html=1;whiteSpace=wrap;collapsible=0;dropTarget=0;pointerEvents=0;fillColor=none;top=0;left=0;bottom=0;right=0;points=[[0,0.5],[1,0.5]];portConstraint=eastwest;" parent="OhTDjM6RpMIjNVaFcS4Z-435" vertex="1">
          <mxGeometry y="63" width="250" height="64" as="geometry" />
        </mxCell>
        <mxCell id="OhTDjM6RpMIjNVaFcS4Z-440" value="ID" style="shape=partialRectangle;html=1;whiteSpace=wrap;connectable=0;fillColor=none;top=0;left=0;bottom=0;right=0;overflow=hidden;" parent="OhTDjM6RpMIjNVaFcS4Z-439" vertex="1">
          <mxGeometry width="125" height="64" as="geometry" />
        </mxCell>
        <mxCell id="OhTDjM6RpMIjNVaFcS4Z-441" value="&lt;span&gt;Follow a publisher&lt;/span&gt;" style="shape=partialRectangle;html=1;whiteSpace=wrap;connectable=0;fillColor=none;top=0;left=0;bottom=0;right=0;overflow=hidden;" parent="OhTDjM6RpMIjNVaFcS4Z-439" vertex="1">
          <mxGeometry x="125" width="125" height="64" as="geometry" />
        </mxCell>
        <mxCell id="OhTDjM6RpMIjNVaFcS4Z-442" value="" style="shape=partialRectangle;html=1;whiteSpace=wrap;collapsible=0;dropTarget=0;pointerEvents=0;fillColor=none;top=0;left=0;bottom=0;right=0;points=[[0,0.5],[1,0.5]];portConstraint=eastwest;" parent="OhTDjM6RpMIjNVaFcS4Z-435" vertex="1">
          <mxGeometry y="127" width="250" height="63" as="geometry" />
        </mxCell>
        <mxCell id="OhTDjM6RpMIjNVaFcS4Z-443" value="Priority" style="shape=partialRectangle;html=1;whiteSpace=wrap;connectable=0;fillColor=none;top=0;left=0;bottom=0;right=0;overflow=hidden;" parent="OhTDjM6RpMIjNVaFcS4Z-442" vertex="1">
          <mxGeometry width="125" height="63" as="geometry" />
        </mxCell>
        <mxCell id="OhTDjM6RpMIjNVaFcS4Z-444" value="Low" style="shape=partialRectangle;html=1;whiteSpace=wrap;connectable=0;fillColor=none;top=0;left=0;bottom=0;right=0;overflow=hidden;" parent="OhTDjM6RpMIjNVaFcS4Z-442" vertex="1">
          <mxGeometry x="125" width="125" height="63" as="geometry" />
        </mxCell>
        <mxCell id="OhTDjM6RpMIjNVaFcS4Z-445" value="" style="shape=partialRectangle;html=1;whiteSpace=wrap;collapsible=0;dropTarget=0;pointerEvents=0;fillColor=none;top=0;left=0;bottom=0;right=0;points=[[0,0.5],[1,0.5]];portConstraint=eastwest;" parent="OhTDjM6RpMIjNVaFcS4Z-435" vertex="1">
          <mxGeometry y="190" width="250" height="63" as="geometry" />
        </mxCell>
        <mxCell id="OhTDjM6RpMIjNVaFcS4Z-446" value="Primary Business Actor:" style="shape=partialRectangle;html=1;whiteSpace=wrap;connectable=0;fillColor=none;top=0;left=0;bottom=0;right=0;overflow=hidden;" parent="OhTDjM6RpMIjNVaFcS4Z-445" vertex="1">
          <mxGeometry width="125" height="63" as="geometry" />
        </mxCell>
        <mxCell id="OhTDjM6RpMIjNVaFcS4Z-447" value="&lt;span&gt;Logged-in client&amp;nbsp;&lt;/span&gt;" style="shape=partialRectangle;html=1;whiteSpace=wrap;connectable=0;fillColor=none;top=0;left=0;bottom=0;right=0;overflow=hidden;" parent="OhTDjM6RpMIjNVaFcS4Z-445" vertex="1">
          <mxGeometry x="125" width="125" height="63" as="geometry" />
        </mxCell>
        <mxCell id="OhTDjM6RpMIjNVaFcS4Z-448" value="" style="shape=partialRectangle;html=1;whiteSpace=wrap;collapsible=0;dropTarget=0;pointerEvents=0;fillColor=none;top=0;left=0;bottom=0;right=0;points=[[0,0.5],[1,0.5]];portConstraint=eastwest;" parent="OhTDjM6RpMIjNVaFcS4Z-435" vertex="1">
          <mxGeometry y="253" width="250" height="37" as="geometry" />
        </mxCell>
        <mxCell id="OhTDjM6RpMIjNVaFcS4Z-449" value="Other Participating Actors:" style="shape=partialRectangle;html=1;whiteSpace=wrap;connectable=0;fillColor=none;top=0;left=0;bottom=0;right=0;overflow=hidden;" parent="OhTDjM6RpMIjNVaFcS4Z-448" vertex="1">
          <mxGeometry width="125" height="37" as="geometry" />
        </mxCell>
        <mxCell id="OhTDjM6RpMIjNVaFcS4Z-450" value="&lt;span&gt;Logged-in client&amp;nbsp;&lt;br&gt;(Primary business)&lt;br&gt;&lt;/span&gt;" style="shape=partialRectangle;html=1;whiteSpace=wrap;connectable=0;fillColor=none;top=0;left=0;bottom=0;right=0;overflow=hidden;" parent="OhTDjM6RpMIjNVaFcS4Z-448" vertex="1">
          <mxGeometry x="125" width="125" height="37" as="geometry" />
        </mxCell>
        <mxCell id="OhTDjM6RpMIjNVaFcS4Z-451" value="" style="shape=partialRectangle;html=1;whiteSpace=wrap;collapsible=0;dropTarget=0;pointerEvents=0;fillColor=none;top=0;left=0;bottom=0;right=0;points=[[0,0.5],[1,0.5]];portConstraint=eastwest;" parent="OhTDjM6RpMIjNVaFcS4Z-435" vertex="1">
          <mxGeometry y="290" width="250" height="90" as="geometry" />
        </mxCell>
        <mxCell id="OhTDjM6RpMIjNVaFcS4Z-452" value="Description" style="shape=partialRectangle;html=1;whiteSpace=wrap;connectable=0;fillColor=none;top=0;left=0;bottom=0;right=0;overflow=hidden;" parent="OhTDjM6RpMIjNVaFcS4Z-451" vertex="1">
          <mxGeometry width="125" height="90" as="geometry" />
        </mxCell>
        <mxCell id="OhTDjM6RpMIjNVaFcS4Z-453" value="&lt;span&gt;The user can follow publishers and when the publisher publish a new music. user will be notified&lt;/span&gt;" style="shape=partialRectangle;html=1;whiteSpace=wrap;connectable=0;fillColor=none;top=0;left=0;bottom=0;right=0;overflow=hidden;" parent="OhTDjM6RpMIjNVaFcS4Z-451" vertex="1">
          <mxGeometry x="125" width="125" height="90" as="geometry" />
        </mxCell>
        <mxCell id="OhTDjM6RpMIjNVaFcS4Z-456" value="NARRATIVE" style="text;html=1;align=center;verticalAlign=middle;resizable=0;points=[];autosize=1;strokeColor=none;fontSize=40;fontStyle=0" parent="1" vertex="1">
          <mxGeometry x="-640" y="-1085" width="240" height="50" as="geometry" />
        </mxCell>
      </root>
    </mxGraphModel>
  </diagram>
</mxfile>
